
        <svg xmlns="http://www.w3.org/2000/svg" xmlns:xlink="http://www.w3.org/1999/xlink" version="1.1" width="3192" 
        height="3184.2039434709955" viewBox="0 0 3192 3184.2039434709955">
			<rect fill="#000000" width="3192" height="3184.2039434709955"/>
			<g transform="scale(9.6) translate(10, 10)">
				<defs id="SvgjsDefs2785"></defs><g id="SvgjsG2786" featureKey="rootContainer" transform="matrix(2.8938654362463287,0,0,2.8938654362463287,-0.00346661711164234,-0.028938799252233225)" fill="#ffffff"><g xmlns="http://www.w3.org/2000/svg" fill-rule="evenodd"><path d="M52.57.64a.38.38 0 0 0-.26-.63v.06c-.57-.1-.78 0-.83.21-.18.53.85.68 1.09.36zM53.5.59c.26.18.4.53.68.68a2.36 2.36 0 0 1 .89.36c-.3 0-.34.23-.26.37s.62-.09.47-.31c0 0-.13 0-.1-.1.86-.2 1 .32 1.41.47.21.07.51 0 .78.05s.81.77 1 .36c.14-.25-.37-.47-.21-.73a.78.78 0 0 1 .68-.1c.15 0 .34.33.57.47a1.46 1.46 0 0 0 .78.26c.35 0 .33-.25.42-.62s.14-.76-.26-.89a3.21 3.21 0 0 0-1.15.16c-.3 0-.62-.09-.83-.05a8.09 8.09 0 0 1-1.2.57 1.08 1.08 0 0 1-.68-.1 2.76 2.76 0 0 0-.26-.47c-.39-.26-.7.06-1.2-.05a.92.92 0 0 1-.36-.21c-.1-.09-.17-.5-.26-.57a2.87 2.87 0 0 0-1.67 0 1 1 0 0 0 .76.45z"></path><path d="M57.1.64c.25.23 1.28.42 1.3-.1 0-.35-1.09-.58-1.35-.42s-.13.22 0 .36.02.14.05.16zM48.92.75a4.15 4.15 0 0 0 .52.37 1 1 0 0 0 1-.21.45.45 0 0 0-.42-.37 1.61 1.61 0 0 1-.42 0 .54.54 0 0 1-.1-.21 1.2 1.2 0 0 0-1 0 .92.92 0 0 0 .42.42zM47.61.47c-.31-.08-1-.09-1 .21s1.22.38 1-.21zM61.48 1.74a7.86 7.86 0 0 0 1.41-.42c.53-.08 1.11.13 1.25-.31A7.58 7.58 0 0 0 62.37.7c-.39 0-1.5.28-1.46.68a.72.72 0 0 0 .57.36zM49.33 2.42c-.11.56.55.5.78.68s.34.56.52.63a.53.53 0 0 0 .68-.26c0-.36-.43-.31-.57-.42a7.16 7.16 0 0 1-.42-.62 1.47 1.47 0 0 0-.73-.1c.15-.43.51-.17.94-.21a1.42 1.42 0 0 0 .89-.47.76.76 0 0 0 .16-.57.83.83 0 0 0-.94-.05c-.41.18-.65.36-1 .52s-1.44.4-1.25.83.63.09.94.04zM45.16 1.17c0-.19-.13-.13-.31-.16a1.7 1.7 0 0 0-.94.21.54.54 0 0 0-.1.42c.17.36 1.47.01 1.35-.47zM44.77 2.36c-.46 0-1-.14-.94.31s.57.25 1 .21c.87-.08 1 .42 1.82.47.47 0 1.81 0 1.77-.42s-.41-.14-.57-.31 0-.32-.05-.42a1.28 1.28 0 0 0-.16-.1 1.79 1.79 0 0 1-.16-.68.32.32 0 0 0-.36-.31.55.55 0 0 0-.57.52 1.18 1.18 0 0 1 .16.68 1.79 1.79 0 0 1-.83 0c-.22 0-.7.08-1.11.05zM42.51 3.47a.81.81 0 0 0 .68-.83 4.8 4.8 0 0 0-.52-.68 3.9 3.9 0 0 0 .1-.49c0-.12-.09-.15-.26-.16a.62.62 0 0 0-.36.1 1.38 1.38 0 0 0-.1.89.82.82 0 0 1-.21.26.63.63 0 0 0 .67.91zM66.77 2.16a.42.42 0 0 0 .42-.36c0-.3-1.76-.55-1.93-.52a1.78 1.78 0 0 0 1.51.88zM63.67 1.47c-.57 0-.86.6-.31.78a.92.92 0 0 0 .52-.1c.59-.34.16-.74-.21-.68zM53.35 2.21a4.38 4.38 0 0 0-.52-.62.83.83 0 0 0-.47 0c-.45.06-.91.38-.57.89a2 2 0 0 0 .83.37c.55.15 1.47.36 1.41-.21a1.24 1.24 0 0 0-.68-.43zM65.23 2.78c.67-.09.23-.9-.31-.68s-.1.74.31.68zM39.43 2.83a2.45 2.45 0 0 0 .73.47.64.64 0 0 0 .57-.57c0-.51-1-.7-1.46-.57-.14 0-.42 0-.42.31a.72.72 0 0 0 .58.36zM56.42 3.41a.57.57 0 0 0 .47-.52.53.53 0 0 0-.52-.57.78.78 0 0 0-.73.89.64.64 0 0 0 .78.2zM69.14 4.03a1 1 0 0 0 .21.47c.17.17.61.21.89.42a.8.8 0 0 1 .37.89 3.24 3.24 0 0 1-.57.26c-.1.11 0 .3-.1.47s-.46.1-.47.42a.74.74 0 0 0 .78.47c.49 0 .36-.35.57-.62a1.39 1.39 0 0 1 .73-.36 11.91 11.91 0 0 0 1.25.1 4.86 4.86 0 0 1 .47-.21 1.85 1.85 0 0 1 1.3.47c.14.06.66.29.78 0a3.86 3.86 0 0 0-.16-.52c.67.17.46-.59.37-.68a.6.6 0 0 0-.63 0 3 3 0 0 1-.31.37 5.28 5.28 0 0 1-.68-.21 9.34 9.34 0 0 0-1.46 0 2.83 2.83 0 0 1-.94.1 2 2 0 0 1-.26-.83 6.64 6.64 0 0 1-.83-.47.79.79 0 0 1 .26-1c.54-.13.54.4.63.68a1.12 1.12 0 0 0 1.09.73 3.27 3.27 0 0 1 1-.21 2.45 2.45 0 0 1 .47.42 2.46 2.46 0 0 0 1.15.26c.24 0 .39-.26.68-.31a3.47 3.47 0 0 0 .89-.05 1.63 1.63 0 0 0-.89-.47c-.09 0-.27.14-.42.16a3.66 3.66 0 0 1-.57-.1c-.22 0-.56 0-.68-.05a4.58 4.58 0 0 1-.52-.52 1.33 1.33 0 0 0-.94.05c-.46 0-1.16-.15-1-.52a5.81 5.81 0 0 0 .73-.26.79.79 0 0 0-.63-.37 24.16 24.16 0 0 0-2.45-.73 3.66 3.66 0 0 1 .26 1.2.63.63 0 0 1-.37.36 1.76 1.76 0 0 0-.21-.36c-.77-.84-.67 1.11.21.55zM62.89 2.42c-.39 0-.72.12-1 .16s-.79-.06-.83.21.91.43 1.36.47c.65.06 1.41.12 1.36-.47s-.69-.38-.89-.37z"></path><path d="M68.77 2.89c0-.35-.8-.54-1-.42-.68.44.94 1 1 .42zM66.59 2.78a.71.71 0 0 0-.52-.1c-.69.24-.05 1.07.31 1.2.2.07.45 0 .63.05s.14.32.31.42a.44.44 0 0 0 .68-.16c.07-.42-.53-.38-.73-.52s-.37-.67-.68-.89zM35.42 4.14a4.28 4.28 0 0 0 .68-.21 2.78 2.78 0 0 0 .42.26.72.72 0 0 0 .78-.63c-.11-.34-.46 0-.83-.16 0-.2.19-.27.05-.42a2.62 2.62 0 0 0-.94.31 1.34 1.34 0 0 0-.73.31.61.61 0 0 0 .57.54zM65.44 3.41a.5.5 0 0 0-.68-.37.33.33 0 0 0-.31.31c-.06.65 1.04.7.99.06zM53.56 3.2a1.5 1.5 0 0 0-.52.37c-.15.1-.84.43-.63.78s1.42-.18 1.62-.47c.3-.41.12-.84-.47-.68zM42.77 3.62c-.06.23.32.39.57.42.51.06 1.55-.28 1.46-.62s-.65-.19-.89-.16a3.75 3.75 0 0 0-.63.1 1.44 1.44 0 0 0-.51.26zM59.97 4.03c.05-.45-1.47-.9-1.77-.78-1.22.47 1.67 1.62 1.77.78zM38.23 3.3c-.18.06-.39.34-.21.52.55.54.98-.79.21-.52zM39.77 3.93c.15.48 1.71.09 1.62-.42 0-.24-.24-.2-.47-.21-.39-.01-1.24.24-1.15.63zM63.25 3.41c-.72.11-.47.78.05.78.37 0 .72-.4.47-.68a.6.6 0 0 0-.52-.1zM49.13 3.47c-.67.17-.25.78.26.73l.26-.1c.36-.4-.32-.63-.52-.63zM55.12 3.98a2 2 0 0 1-.05.42c-.14.33-.45.22-.36.52s.77.22.94 0a5.34 5.34 0 0 0 .11-.62.86.86 0 0 1 .26-.21c.33-.39-.09-.65-.52-.52a.4.4 0 0 0-.38.41zM61.38 3.93a.32.32 0 0 0-.26.16 1 1 0 0 0 1 1c1.03-.13-.35-1.32-.74-1.16zM46.1 4.14a1.38 1.38 0 0 0-.63.21c-.17.15-.58 1-.21 1.2s1-.59 1.36-.78a1.15 1.15 0 0 0 .78-.31c.09-.51-1-.38-1.3-.32zM41.88 4.4a2.05 2.05 0 0 0-.78-.21.81.81 0 0 0-.47.21.56.56 0 0 0 .05.78c.46.17.63-.45.94-.47s.58.51 1.09.37a.4.4 0 0 0 .31-.47c-.09-.32-.87-.14-1.14-.21zM64.66 4.19c-.4.05-.62.13-.63.42 0 .54 1.57.9 1.72.37a.91.91 0 0 0-.16-.47 1 1 0 0 0-.93-.32zM38.02 4.24c-.42 0-1 .09-1 .47 0 .65 1.74.6 1.88-.05.11-.48-.31-.48-.88-.42zM26.4 9.19a1.73 1.73 0 0 0 .68-.31c.22 0 .48.07.83.05a.93.93 0 0 1 .78 0 1.12 1.12 0 0 1-.42.83c-.28.29-.7.51-.83.68a6.86 6.86 0 0 0-.31.63c-.11.13-.82.42-.68.78a.58.58 0 0 0 .78-.05 11.69 11.69 0 0 1 1.41-1.51c.45-.31.67-.21.78-.73a3.33 3.33 0 0 1 .05-.57 1.14 1.14 0 0 1 .78-.26 1.44 1.44 0 0 0 1.09-.84c.09-.19.11-.47.21-.62a2.65 2.65 0 0 1 1.09-.52c.66-.37 1.12-1.14 1.93-1.2.49 0 .86.16 1-.16a1.06 1.06 0 0 0-.05-.52c0-.27.27-.2.16-.42s-.86-.06-1.3.21a2.53 2.53 0 0 1-.52.37c-.51.09-1-.35-1.3 0a4 4 0 0 0-.21.94c-.13.2-.59.2-.78.42a4.47 4.47 0 0 0-.21.63 3.42 3.42 0 0 1-.83.47 4.5 4.5 0 0 0-.47.63 2.06 2.06 0 0 1-.63.52.94.94 0 0 1-.52.05.41.41 0 0 1-.05-.31.85.85 0 0 0-.47-.52.64.64 0 0 1-.42-.21.85.85 0 0 1 .37-.31 3 3 0 0 1 .94.1 1.51 1.51 0 0 0 .42-.21c.41-.3.43-.88.83-1.15 0 0 .59-.17.68-.21a7 7 0 0 0 .68-.47 1.08 1.08 0 0 0 .36-.21.36.36 0 0 0-.05-.47 5.31 5.31 0 0 0-1.51.57c-.2.13-.24.3-.37.37a3.72 3.72 0 0 1-.42.1 1.14 1.14 0 0 0-.42.16 2.71 2.71 0 0 0-.26.57 1.72 1.72 0 0 1-.57.36 1.31 1.31 0 0 1-1 .31.86.86 0 0 0-.26-.16 3.24 3.24 0 0 0-.62.47c-.16.09-.17 0-.36.16-.61.38.13.47.57.58-.13.2-1.21.73-.58.98zM47.88 4.55a.42.42 0 0 0-.21.05c-.31.4.71.84 1 .78s.23-.47.1-.62a1.81 1.81 0 0 0-.89-.21zM52.51 5.39a.74.74 0 0 0-.21-.26.56.56 0 0 0 .1-.57c-.23-.24-.63.13-.42.52a.81.81 0 0 0-.57.16c-.45.65 1.18.82 1.1.15zM67.37 4.87c.12-.3-.24-.37-.36-.31-.4.16.24.6.36.31zM59.5 5.47c.19-.56-.54-.63-.89-.57s-.79.24-.68.63 1.45.3 1.57-.06zM44.7 6.01a.81.81 0 0 0-1-.78.42.42 0 0 0-.47.37c-.01.45 1.4.87 1.47.41zM60.54 5.75a1.43 1.43 0 0 0 1.56.1.64.64 0 0 0-.31-.47 1.23 1.23 0 0 0-.73-.16c-.35.07-.62.25-.52.53zM38.86 6.17a.33.33 0 0 0 .21.52.91.91 0 0 0 .83-1 .54.54 0 0 0-.68-.37.85.85 0 0 0-.16.63 2.54 2.54 0 0 1-.2.22zM66.48 5.96a.89.89 0 0 0 .78.26 4.78 4.78 0 0 1 .57-.26c.5-.08.92.17 1-.1a.72.72 0 0 0-.06-.39c-.29-.3-.93.11-1.15.1a.81.81 0 0 1-.31-.05l-.31-.1h-.05c-.09.05-.59.14-.47.54zM49.18 5.65c-.61.26 0 .79.42.68s.07-.86-.42-.68zM57.15 5.81c0-.23-.2-.2-.31-.16-.62.22.33.72.31.16zM78.89 6.85c.25.11 1 .5 1.15.21s-.56-.63-.94-.83a6.67 6.67 0 0 0-1.3-.62c-.16.78.45.95 1.09 1.24zM34.77 6.8a.57.57 0 0 0-.47.36c-.12.53.93.35 1.15.16a1.92 1.92 0 0 1 .47-.73 2.69 2.69 0 0 0 .52-.21c.46-.67-.74-.77-.94-.68-.47.22-.06.55-.21.83a1.34 1.34 0 0 1-.52.27zM41.52 6.01c-.24 0-.49.09-.42.36s.91.24.78-.21c-.11-.22-.11-.17-.36-.15zM65.34 6.33a.44.44 0 0 0-.57-.26c-.69.3.63.94.57.26zM46.68 6.64a1 1 0 0 0 .47.36c-.46.05-.77.21-.68.52s1.11.07 1-.31a1.75 1.75 0 0 1-.21-.26.37.37 0 0 0 .42-.37c.09-.55-1.2-.71-1 .06zM54.08 6.38c0-.28-.43-.29-.57-.26s-.43.09-.42.31c.02.45 1.01.35.99-.05zM63.77 6.59c0-.31-.31-.39-.63-.31s-.45.14-.42.42c.05.46 1.05.35 1.05-.11zM76.02 7.16c.92.09.5-.76-.05-.78a.18.18 0 0 0-.1.05c-.63.17-.3.69.15.73zM56.06 6.74a.44.44 0 0 0-.63-.26c-1.1.29.75 1.15.63.26zM60.12 6.64c-.08-.27-.29-.23-.57-.16s-.5.21-.42.47 1.12.12.99-.31zM49.49 6.9c0 .58 1.22.3 1-.21a.61.61 0 0 0-.73-.16c-.29.13-.28.22-.27.37zM38.44 7.32a1.19 1.19 0 0 0 .16-.42.31.31 0 0 0-.37-.21c-.22 0-.49.16-.83.16a3.76 3.76 0 0 0-.89-.16.63.63 0 0 0-.42.68c.18.38.8-.08 1.2-.05.18 0 .35.2.57.21a1 1 0 0 0 .58-.21zM65.6 6.8a.42.42 0 0 0-.31.16c-.25.61.9 1 1 .37a.61.61 0 0 0-.69-.53zM61.58 7.16a.58.58 0 0 0-.52-.21c-1.12.2.29 1.07.63.73.17-.21.02-.36-.11-.52zM78.11 7.52a.58.58 0 0 0-.05-.42.39.39 0 0 0-.47-.1c-.77.29.3.99.52.52zM54.18 7.73c.2-.45-.6-.66-.78-.57-.63.31.56 1.06.78.57zM81.6 7.73a1.9 1.9 0 0 0-.89-.62v.05c-.72.31.79 1.18.89.57zM39.9 8.57c.14.42.61.07 1 .1a4.47 4.47 0 0 0 .63.21 1.16 1.16 0 0 0 .47-.16 2.72 2.72 0 0 0 .26-.84.89.89 0 0 0 .31-.52.33.33 0 0 0-.31-.16.75.75 0 0 0-.36.1 1.93 1.93 0 0 0-.1.57.76.76 0 0 1-.52.37 1.22 1.22 0 0 1-.36-.16.92.92 0 0 0-.37-.16c-.3.02-.78.3-.65.65zM73.26 8.41a3.88 3.88 0 0 1 .21.57c0 .07.24.2.37.31a1.5 1.5 0 0 0 .94.57c.6-.1-.2-1.08-.31-1.15a2 2 0 0 1-1-.68 3.06 3.06 0 0 0 .37-.42.49.49 0 0 0-.68-.42 2.79 2.79 0 0 0-.52.47 1.41 1.41 0 0 1-.42.21 1.8 1.8 0 0 0-1 .11.61.61 0 0 0 .16.63c.47.34 1-.32 1.2-.37a.91.91 0 0 1 .68.17zM51.77 7.37c-.08-.23-.22-.14-.47-.1a.46.46 0 0 0-.47.37c.05.45 1.1.13.94-.27zM79.88 8.05a.57.57 0 0 0-.1-.47.62.62 0 0 0-.52-.21c-.97.2.31 1.19.62.68zM38.34 7.63a.6.6 0 0 0-.52.26c-.15.5.32.57.63.42a.44.44 0 0 0 .31-.52c-.06-.16-.14-.18-.42-.16zM68.88 7.94c0-.28-.55-.32-.57-.31-.22 0-.46 0-.36.36s.9.39.93-.05zM69.51 7.79c-.49.25 0 .61.31.73 1.37.58.39-1.1-.31-.73z"></path><path d="M32.34 7.84a.49.49 0 0 0-.47.63c.06.25.2 0 .37.26a1.06 1.06 0 0 0 .16.36.4.4 0 0 0 .52-.26 1.72 1.72 0 0 0-.1-.47 2.16 2.16 0 0 0 .1-.42.48.48 0 0 0-.58-.1zM65.49 7.84a.4.4 0 0 0-.16.63 2.59 2.59 0 0 0 .73.21c.53-.21.02-1.1-.57-.84zM75.55 8.62c0 .41.46.3.83.37a1.89 1.89 0 0 0 .94.16.8.8 0 0 0 .31-.68.54.54 0 0 0-.57-.57 1.83 1.83 0 0 0-.89.47c-.33.1-.58-.08-.62.25zM67.94 8.25a.47.47 0 0 0-.68-.26c-.74.38.8 1.07.68.26zM44.33 8.15a1.27 1.27 0 0 0-.52.21.46.46 0 0 0-.1.42.68.68 0 0 0 .68.1c.47-.16.7-.83-.06-.73zM33.44 8.67a1.1 1.1 0 0 0 .94.42.59.59 0 0 0 .63-.42c0-.51-.64-.52-.94-.47-.47.08-.68.18-.63.47zM79.41 8.36c-1.18.26.2 1.71.63 1.3a3.08 3.08 0 0 0 .1-.73c.09-.11.59.14.57-.26s-.42-.1-.68-.16a1.22 1.22 0 0 0-.62-.15zM25.83 8.57c-.1-.16-.16-.09-.47-.05s-.63.13-.57.47c.09.61 1.25-.06 1.04-.42zM82.43 9.92c.85-.06.06-1.71-.52-1.41s-.02 1.45.52 1.41zM63.77 8.57a.69.69 0 0 0-.21.05c-.33.41.41 1 .89.94a.53.53 0 0 0 .31-.26c.16-.52-.69-.83-.99-.73zM55.28 8.67c-.78.25.42.76.52.31.06-.3-.3-.38-.52-.31zM50.85 8.88c-.08-.29-.56-.23-.78-.16s-.43.22-.37.42a.93.93 0 0 0 .47.21c.35.02.74-.24.68-.47zM70.39 9.24c.23-.49-.49-.58-.62-.52-.78.32.4 1.02.62.52zM37.71 8.93c0-.18-.23-.15-.36-.16a1.72 1.72 0 0 0-.73.21c-.2.09-.58.2-.52.47.09.45 1.67-.14 1.61-.52zM47.61 9.04c0-.37-.49-.3-.63-.26-.32.09-.43.19-.36.42s1.01.27.99-.16zM59.5 9.56c.5-.14.16-.87-.31-.73s-.17.87.31.73zM60.91 8.83c-.53.31.56.89.68.36.06-.3-.46-.5-.68-.36zM83.95 9.4c.22-.22-.32-.68-.63-.57-.01.36.45.78.63.57zM31.77 10.08c.42.42 1.53-1 .42-.73-.26.06-.66.49-.42.73zM23.58 10.6a9.29 9.29 0 0 1 1.3.1c.33 0 .45-.33.83-.42.19 0 .49.06.73 0a.62.62 0 0 0 .47-.68.37.37 0 0 0-.42-.05c-.21 0-.41.18-.63.21s-.52-.07-.78-.05-.24.09-.36.1-.3 0-.42 0a8.85 8.85 0 0 1-.83.42c-.28 0-.37-.15-.57-.1a.7.7 0 0 0-.47.78c.25.5.95-.26 1.15-.31zM54.5 10.03a.65.65 0 0 0 .83.16c.31-.39-.23-.53-.36-.52s-.52.09-.47.36zM47.51 9.92c0-.14-.19-.22-.47-.16a.39.39 0 0 0-.26.16c-.52.67.92.55.73 0zM30.31 9.87c-.1-.16-.18-.06-.37-.05s-.74.33-.57.68 1.15-.26.94-.63zM85.77 10.47a1.46 1.46 0 0 0-.94-.62.63.63 0 0 0 .94.62zM81.77 10.65c.29.16.89.43.94 0a1.42 1.42 0 0 0-1.09-.73.34.34 0 0 0-.31.16.67.67 0 0 0 .46.57zM83.43 11.17a.55.55 0 0 0 .89.42 4.2 4.2 0 0 0 .21-.73c.1-.15.43 0 .42-.36a.52.52 0 0 0-.26-.31.51.51 0 0 0-.26.05 1.12 1.12 0 0 0-.31.16 2.24 2.24 0 0 0-.47.16 1.16 1.16 0 0 0-.22.61zM35.89 10.29a.43.43 0 0 0-.42.52.62.62 0 0 0 1 0c.13-.42-.2-.61-.58-.52zM48.24 10.39a2.51 2.51 0 0 0-.26-.16.55.55 0 0 0-.37.05c-.6.3.26.72.52.47a.59.59 0 0 0 .11-.36zM61.17 10.39c-.62.21.46.75.42.21-.03-.26-.37-.22-.42-.21zM72.38 10.76c.13-.35-.46-.42-.57-.36-.65.28.4.81.57.36zM26.56 10.6a.32.32 0 0 0-.31-.16c-.31 0-.62.21-.52.47s.91.06.83-.31zM42.61 10.6a.35.35 0 0 0-.42-.16.44.44 0 0 0-.42.21c-.28.74 1.07.6.84-.05zM79.93 10.47a1.34 1.34 0 0 0-1.3.57.73.73 0 0 0 .73.73 1.47 1.47 0 0 0 .52-.52c.15-.11.31-.07.37-.16a.79.79 0 0 0 .1-.47c-.08-.23-.22-.15-.42-.15zM77.59 10.47c-.7.26.2.84.47.47a.53.53 0 0 0-.05-.47.45.45 0 0 0-.42 0zM29.77 12.11c.06-.09 0-.38.1-.47a2.83 2.83 0 0 1 .31-.16 3.48 3.48 0 0 0 .36-.16.89.89 0 0 0 .42-.63.34.34 0 0 0-.36-.1 1.05 1.05 0 0 0-.94.68.8.8 0 0 1 0 .37 1.27 1.27 0 0 0-.31.05.81.81 0 0 0-.21.16c-.37.52.34.72.63.26zM62.89 11.12c0-.31-.2-.44-.52-.42a.89.89 0 0 0-.42.1c-.57.56.82.94.94.32zM69.77 11.07c0-.29-.6-.31-.73-.26s-.31.12-.26.37.99.29.99-.11zM74.77 11.38a.47.47 0 0 0 .21.31c.37.13.54-.31.78-.52a.46.46 0 0 0 .31-.26.94.94 0 0 0-1.3.47zM21.39 11.85c.39.06 1-.58.73-.89-.07-.07-.12 0-.26 0a1 1 0 0 0-.52.21c-.26.24-.28.63.05.68zM23.77 11.12a1.32 1.32 0 0 0-.42.16.49.49 0 0 0 .1.73c.29.09 1-.36.78-.78-.1-.17-.25-.14-.46-.11zM65.7 11.47c0-.33-.64-.4-.73-.37-.81.37.72 1.18.73.37zM85.87 11.9c.21.27 1.14.59 1.36.26a.54.54 0 0 0-.1-.57 1.31 1.31 0 0 0-1-.42.4.4 0 0 0-.42.26 1 1 0 0 0 .16.47zM50.27 11.8a.81.81 0 0 0-1-.52c-.86.38.95 1.48 1 .52zM77.07 11.28a.35.35 0 0 0-.3.19.72.72 0 0 0 .1.36c.24.31 1 .46 1.15.16.16-.52-.79-.76-.95-.71zM82.28 11.8c-.2-.2-.57-.76-.89-.52-.47.36 1.11 2 1.41 1.3a1.17 1.17 0 0 0-.52-.78zM31.4 11.38a.88.88 0 0 0-.42.21c-.49.57.45.67.73.26a.62.62 0 0 0 .1-.42c-.04-.15-.18-.08-.41-.05zM73.63 11.54c-.26.07-.36.13-.37.31 0 .57 1.06.4.94-.11a.5.5 0 0 0-.57-.2zM39.38 11.59a.37.37 0 0 0-.36.42c.06.48 1 .46 1-.1a.93.93 0 0 1-.1-.21.51.51 0 0 0-.54-.11zM19.88 12.95c.4 0 .86.3 1 0a1.5 1.5 0 0 0-.36-.68c0-.34.36-.53.1-.68l-.73.57a1.61 1.61 0 0 0-.68.68c.08.25.27.06.67.11zM25.04 11.9a2.13 2.13 0 0 0-.68.05.84.84 0 0 0-.68.83 1.32 1.32 0 0 0 1 .21 1.44 1.44 0 0 0 .73-.37.77.77 0 0 0 .1-.73.57.57 0 0 0-.47.01zM71.91 12.11c0-.21-.15-.19-.26-.16-.64.19.28.69.26.16z"></path><path d="M87.13 13.83c-.49.2-.52-.67-.68-.83s-.3-.05-.47-.21c.65-.72-.94-1.16-1-.47a.45.45 0 0 0 .37.42 2.76 2.76 0 0 1 .57.21 8.11 8.11 0 0 0 0 .83 1.15 1.15 0 0 0 .31.57 3.61 3.61 0 0 0 .63.26 1.41 1.41 0 0 1 .31.37 2.6 2.6 0 0 0 .36.83.48.48 0 0 0 .78-.26 2.29 2.29 0 0 0 1.15.57c.28.16.37.47.57.57.38.19 1 .12 1-.26s-.9-.62-1.25-.73a4.2 4.2 0 0 1-.52-.16 2.53 2.53 0 0 1-.26-.31.49.49 0 0 0-.83.26 2 2 0 0 1-.52-.73s.1-.67.1-.68c.25-.38 1.15-.17 1.3-.47a1 1 0 0 0-.31-.78c-.41-.31-.51.13-.78.21a4.46 4.46 0 0 0-.57 0c-.25.22.06.66-.26.79zM22.44 12.11a.57.57 0 0 0-.36-.05.79.79 0 0 0-.52.21 6.24 6.24 0 0 0-.31.83 4.75 4.75 0 0 0-.73.52c-.24.56.31.68.68.42a2.2 2.2 0 0 1 .78-.78 4.65 4.65 0 0 1 .89.31c.39 0 .84-.42.68-.73a1.35 1.35 0 0 0-.73-.26c-.25-.11-.21-.37-.38-.47zM85.15 13.31c.14-.37-.92-1.09-1.25-1.2a.39.39 0 0 0-.26 0c-1.4.25 1.21 1.99 1.51 1.2zM70.03 12.27a.61.61 0 0 0-.21.05.86.86 0 0 0-.16.47.61.61 0 0 0 1 .05.54.54 0 0 0-.1-.47.53.53 0 0 0-.53-.1zM81.24 13.05a.67.67 0 0 0-.11-.42.76.76 0 0 0-.68-.26c-.81.3.59 1.1.79.68zM35.57 14.09a.55.55 0 0 0 .42-.62c0-.13-.4-.29-.52-.52a.51.51 0 0 1-.05-.26.27.27 0 0 0-.37-.21.43.43 0 0 0-.36.42 1.27 1.27 0 0 0 .88 1.19zM61.84 12.53c-.93.27.49 1.07.52.31a.39.39 0 0 0-.52-.31zM29.21 12.63c-.16 0-.57.25-.42.52s1-.06.83-.42c-.07-.18-.12-.15-.41-.1zM41.57 13.31c0 .32.39.25.42.52s-.37.24-.21.52a.34.34 0 0 0 .42.05c.33-.14.11-.38.21-.78.06-.24.27-.2.21-.42a.53.53 0 0 0-.63-.21.39.39 0 0 0-.42.32zM27.13 13.05a.49.49 0 0 0-.57.31.32.32 0 0 0 .21.47c.52.12 1.11-.76.36-.78zM32.71 13.05a.47.47 0 0 0-.42 0c-.68.17-.35 1 .21 1s.54-.8.21-1zM25.67 13.57c.26.52 1.3-.63.37-.42-.17.04-.52.13-.37.42zM71.23 13.15c-.62.29.17 1 .47.57a.39.39 0 0 0-.47-.57zM18.48 14.82c.43.07 1.44-.39 1.3-.89a1.26 1.26 0 0 0-.63-.31.57.57 0 0 1-.1-.26c-.13-.24-.17-.17-.31-.16-.58.06-.97 1.52-.26 1.62zM78.16 13.26c-.48.3.24 1 .42 1.15a.87.87 0 0 0 1 .21.37.37 0 0 1 .31-.16 1.92 1.92 0 0 1 .42.16c.4.08.54-.12.26-.36s-1.22 0-1.62-.31-.28-1-.79-.69z"></path><path d="M90.2 14.56c-.06.27-.51.15-.57.42a.8.8 0 0 0 .89.68l.21-.1a2.4 2.4 0 0 0 .26-.83 4.87 4.87 0 0 0-.78-.78 2.74 2.74 0 0 0-.83-.62c-.22.66.92.77.82 1.23zM34.58 13.57a.46.46 0 0 0-.37-.16c-.57-.06-.85.25-.78.52a.63.63 0 0 0 .52.26c.31.01.77-.24.63-.62zM28.17 13.57a.77.77 0 0 0-.47.16c-.27.21-.27.56.05.63.54.11 1.22-.76.42-.79zM22.77 13.88a1.42 1.42 0 0 0-1 .47.51.51 0 0 0-.1.52 1.41 1.41 0 0 0 1-.16c.37-.13.78-.23.73-.57s-.35-.28-.63-.26zM82.59 13.94c-.54.31.46 1 .68.63s-.5-.74-.68-.63zM42.77 15.08c.11.4 1.19.25 1.09-.26a.52.52 0 0 0-.57-.26c-.37.06-.52.24-.52.52zM25.41 14.67c-.09-.15-.19-.1-.42-.05a.56.56 0 0 0-.31.16.68.68 0 0 0-.05.63c.3.29.96-.46.78-.74zM64.97 14.98c0-.32-.47-.46-.68-.37-.62.3.6 1.01.68.37zM85.25 14.82a1.77 1.77 0 0 0-1.36-.16c-.64.36.35.79.78.94s1.3.46 1.41.16a3.74 3.74 0 0 0-.83-.94zM16.39 16.28a2.37 2.37 0 0 0 1.2-.62 1.24 1.24 0 0 0 .31-.68.27.27 0 0 0-.36-.16 3.31 3.31 0 0 0-.68.42h-.42a1.18 1.18 0 0 0-.37.36 1 1 0 0 0 .32.68zM20.25 14.93a.19.19 0 0 0-.16.05.47.47 0 0 0-.37.37 1.55 1.55 0 0 1-.16.31c-.18.2-1.46.73-1.25 1.2a.71.71 0 0 0 .78.05 7.38 7.38 0 0 0 1.15-.63 1.28 1.28 0 0 0 .01-1.35zM75.71 15.14a.7.7 0 0 0-.63-.16c-.72.23 0 .8.36.78a.41.41 0 0 0 .27-.62zM28.01 15.47c-.05-.21-.21-.21-.42-.21-.41 0-1.08.67-.78 1s1.29-.5 1.2-.79zM23.06 15.34c-.19 0-.49.17-.37.42.26.5 1.08-.52.37-.42zM92.49 16.59c.1.12.16.3.26.42a.75.75 0 0 1 .31.42 1.14 1.14 0 0 1-.1.31 1.54 1.54 0 0 0-.1.36c0 .75.53.87.73 1.36a5.05 5.05 0 0 0 .21.89c.09.12.61.43.78.21.31-.39-.48-.75-.57-1s0-.41 0-.63a3.15 3.15 0 0 0-.21-.62 6.56 6.56 0 0 1-.26-.63 1.76 1.76 0 0 0 .05-.37 4.46 4.46 0 0 0-.82-.84 2.78 2.78 0 0 0-.94-.83 1.35 1.35 0 0 0 .66.95zM77.48 16.07c-.55.34.52 1 .73.57s-.44-.75-.73-.57zM13.99 18.84a3.75 3.75 0 0 0 .47.16 1.85 1.85 0 0 0 .94-.57 2.34 2.34 0 0 1 .47-.73c.07-.05.25 0 .37-.1s.36-.35.52-.42a1.55 1.55 0 0 1 .26 0 .79.79 0 0 0 .63-.83.35.35 0 0 0-.31-.16 1.41 1.41 0 0 0-.68.21 1.45 1.45 0 0 0-.83.78 1.21 1.21 0 0 1-.37.47 2.67 2.67 0 0 1-1 .31 2.91 2.91 0 0 0-.63 0 1 1 0 0 0-.31.31.5.5 0 0 0-.21.42.91.91 0 0 0 .68.15zM20.46 17.12a.81.81 0 0 0 .63-.78c-.1-.18-.22-.07-.42-.05-.68.05-.84.83-.21.83zM30.31 16.47c-.07-.27-.19-.27-.52-.21a.59.59 0 0 0-.31.16c-.71.72 1.06 1.05.83.05zM87.77 17.27c.47-.1.11-1-.31-.89-.61.2-.04.97.31.89zM88.77 16.39c-.49.31.49.92.73.68s-.34-.91-.73-.68zM68.26 16.47c-.39 0-.48.18-.47.37 0 .4.84.39.94.1s-.3-.47-.47-.47z"></path><path d="M92.49 17.17c.25-.25-.33-.87-.57-.73-.43.24.27 1.03.57.73zM86.71 16.86a.47.47 0 0 0-.57-.31c-.99.28.63 1.15.57.31zM83.37 17.06a.54.54 0 0 0-.16.26 1 1 0 0 0 1 .83c.19-.11.07-.34.05-.62.36.1.5-.54.36-.63-.37-.24-.46.28-.68.31a2 2 0 0 0-.57-.15zM90.77 17.32a.41.41 0 0 0-.37.42c0 .63.73.6.89 1.09a3.44 3.44 0 0 1 0 .63.55.55 0 0 0 .26.42.67.67 0 0 0 .47-.05.82.82 0 0 0 .05-.68c0-.22-.22-.43-.26-.62a2.7 2.7 0 0 0-.16-.89.89.89 0 0 0-.88-.32zM22.12 18.21c.34.19 1-.92.26-.83-.32.04-.61.64-.26.83zM88.95 17.47a.45.45 0 0 0-.26.57.59.59 0 0 0 1 0 .9.9 0 0 0-.22-.57.53.53 0 0 0-.52 0zM75.61 17.69a.45.45 0 0 0-.26.05 2.23 2.23 0 0 0-.26.57c-.12.38-.16.7.05.78.4.16.35-.5.47-.63s.56.07.57-.42-.47-.37-.57-.35zM24.89 18.31c.22.71 1.61-.6.57-.57a.53.53 0 0 0-.57.57zM35.68 17.79c-.75.17-.11.82.31.47s.16-.58-.31-.47zM86.61 18.42a.41.41 0 0 0-.57-.31c-.65.36.88 1.16.57.31zM28.07 18.42c-.06-.15-.13-.2-.42-.16a.41.41 0 0 0-.42.47c.09.63 1.03.21.84-.31zM17.77 18.31a4.22 4.22 0 0 0-.57.16c-.2 0-.36-.08-.63-.05a.94.94 0 0 0-.73.52c-.36.73.88.56 1.35.36a4.22 4.22 0 0 0 .57-.36 1.18 1.18 0 0 0 .31-.16.43.43 0 0 0 .1-.42.29.29 0 0 0-.4-.05zM22.96 18.63c0-.11-.12-.17-.42-.16-.73 0-.6.78-.16.83a.58.58 0 0 0 .58-.67zM19.77 18.58c-.09-.15-.2-.12-.47-.05s-.62.42-.37.68 1.01-.29.84-.63zM83.11 19.05c.08-.4-.62-.56-.73-.52-.88.33.6 1.14.73.52zM26.66 19.31a.55.55 0 0 0 .05-.62.32.32 0 0 0-.31 0c-.47.15-.23.94.26.62zM20.93 18.89a.31.31 0 0 0-.37-.16.81.81 0 0 0-.36.1 1 1 0 0 0-.16.89c.37.3 1.04-.46.89-.83zM81.77 19.88c.48-.18.05-1-.42-.83-.58.24.08.97.42.83zM95.67 21.08a2.29 2.29 0 0 0 .83.16c.35.14.33.65.73.63a1 1 0 0 0-.42-.73 2.53 2.53 0 0 0-.16-.26 4.19 4.19 0 0 1-.42-.16 3.17 3.17 0 0 1-.42-.89c-.09-.16-.34-.35-.42-.47a.69.69 0 0 0-.42-.37c-.19.39.26.54.42 1a4 4 0 0 0 .28 1.09zM89.52 19.88a.55.55 0 0 0-.68-.68 1.25 1.25 0 0 0-.31.42.69.69 0 0 0-.42.21c-.19.73 1.32.44 1.41.05zM91.14 19.67a1 1 0 0 0-.78-.16c-.76.38.86 1.2 1.09.68a.59.59 0 0 0-.31-.52zM93.12 19.98c.17-.17-.1-.61-.31-.47s.15.63.31.47zM76.13 20.19c.11-.37-.37-.53-.57-.47-.9.25.41 1 .57.47zM12.38 21.29c.62 0 .75-1.64-.1-1.41-.65.18-.51 1.43.1 1.41zM13.84 20.19a.54.54 0 0 0-.47.52c0 .56.8.18.89.05.27-.42.03-.68-.42-.57zM81.7 20.82c.33 0 .31-.85-.1-.62-.24.13-.21.62.1.62zM16.6 20.4a.92.92 0 0 0-.42.21 1.08 1.08 0 0 0-.16.57c.24.51 1.27-.35 1-.73-.06-.17-.25-.09-.42-.05zM15.14 20.61a.46.46 0 0 0-.31.05 1.42 1.42 0 0 0-.57 1.15.43.43 0 0 0 .73.26c.27-.18.53-1.3.15-1.46zM84.94 21.23a.44.44 0 0 0-.57-.52c-.54.32.4 1.1.57.52zM92.49 21.03c-.23.67 1.07 1.14 1.25.52s-.65-.83-.94-.73a.48.48 0 0 0-.31.21zM17.33 21.03c-.28.09-.62 1-.1 1s.86-1.25.1-1zM21.13 21.23c-.06-.18-.13-.16-.36-.16a.64.64 0 0 0-.63.63c.15.47 1.15.02.99-.47zM90.46 21.13a.28.28 0 0 0-.16.05c-.17.51.91 1.37 1.2 1s-.8-1.18-1.04-1.05zM95.99 21.76c.16-.44-.35-.53-.57-.47-1.01.25.35 1 .57.47zM91.66 21.34c-.39.27.49.61.37.1-.06-.21-.34-.12-.37-.1zM89.11 22.17a.53.53 0 0 0 0-.52.59.59 0 0 0-.47-.05c-.6.29.13.87.47.57zM10.87 22.33a.8.8 0 0 0 .16-.57c-.1-.29-.31 0-.42.1a1.81 1.81 0 0 0-.52.94 1.57 1.57 0 0 0 .78-.47z"></path><path d="M94.89 22.07c.19-.08.07-.64-.26-.42s.05.51.26.42zM17.54 22.22a.39.39 0 0 0 .36.63.93.93 0 0 0 .73-1 .29.29 0 0 0-.31-.1.93.93 0 0 0-.78.47zM11.33 23.11a.78.78 0 0 0 .57-.47 1.43 1.43 0 0 0 .26-.78.36.36 0 0 0-.42-.05 1.13 1.13 0 0 0-.52.26 1.84 1.84 0 0 0-.31.68.43.43 0 0 0 .42.36zM82.49 23.16a.66.66 0 0 0 .05-.78c-.15-.41-.37-.55-.63-.47a.41.41 0 0 0-.16.05c-.5.41.3 1.43.74 1.2zM87.77 22.12c-.62.32.3 1.2.63.68a.52.52 0 0 0-.63-.68zM25.67 22.33c-.31.08-.43.25-.31.52s.78 0 .68-.37c-.07-.21-.21-.19-.37-.15zM95.36 23.68c.43.18 1.15.15 1-.47a1.7 1.7 0 0 0-1.41-.57c-.7.25.1.91.41 1.04zM96.82 24.05c.13.4.61.46.73.83a4.28 4.28 0 0 1 0 .52 7.56 7.56 0 0 0 .47 1c.06.25-.06.47 0 .73a1.42 1.42 0 0 0 1 .89c.18 0 .24-.3.42-.31a.45.45 0 0 1 .21.16c.15.08.69 0 .83.1s.29.72.57.63 0-.93-.1-1c-.32-.63-.85-1.23-1.51-.83a2 2 0 0 1-.37.37.72.72 0 0 1-.57-.42 2.79 2.79 0 0 1 .1-.68 2.21 2.21 0 0 0-.26-.94 2.33 2.33 0 0 1-.47-.52 3.94 3.94 0 0 1 .1-.68c0-.59-.26-1.47-.78-1.25a1.56 1.56 0 0 0-.37 1.4zM22.59 23.74c-.11-.31-.44-.09-.63-.37a1.86 1.86 0 0 0-.16-.63c-.75-.54-1.52 1.29-.16.89.12.36.09.71.47.73a.51.51 0 0 0 .48-.62zM13.77 24.73c-.2.2-.48.67-.1.78s.62-.65.78-.83.5-.27.57-.37a1.15 1.15 0 0 0-.21-1.3.2.2 0 0 0-.21 0 .79.79 0 0 0-.83.63.38.38 0 0 0 .26.31.42.42 0 0 1 .21.36c-.01.31-.28.25-.47.42zM94.01 23.11c-.09.06-.06 0-.1.1-.14.36.35 1.19.78 1s-.16-1.43-.68-1.1zM18.21 23.27c-.21 0-.66.37-.52.63s1 0 .78-.52a.34.34 0 0 0-.26-.11zM91.35 23.94c.18-.42-.44-.59-.63-.52-.75.29.44.97.63.52zM11.28 23.47a1.24 1.24 0 0 0-.63.26 1.18 1.18 0 0 0-.31.63c.13 1 1.62-.17 1.41-.73-.08-.22-.24-.16-.47-.16zM91.61 24.83c-.38.49.45.84.73.68s.15-.67.36-.78a1.06 1.06 0 0 0 .47-.05.54.54 0 0 0-.57-.83c-.34.16-.18.74-.37.89s-.46-.07-.62.09z"></path><path d="M99.22 24.62a1.55 1.55 0 0 0-.52-.83c-.27.32.15.98.52.83zM12.32 24.21c-.12.13-.24.64.1.73s.95-.47.73-.83c-.1-.17-.19-.06-.36-.05a.92.92 0 0 0-.47.15zM17.49 24.26c-.08-.23-.18-.19-.42-.16a.61.61 0 0 0-.52.63s.09.2.1.21c.39.31.93-.4.84-.68zM9.51 24.83a.68.68 0 0 0 .05-.21c.1-.33 0-.61-.42-.47a.53.53 0 0 0-.31.63.56.56 0 0 0 .68.05zM87.86 24.41a.27.27 0 0 0 .21.47c.33-.03.11-.7-.21-.47zM96.25 24.57c-.66.19-.08 1.19.31 1.09s.21-1.25-.31-1.09zM10.14 26.92a.82.82 0 0 0 .68-.21c.31-.27 1-1.6.21-1.46a.59.59 0 0 0-.42.42 2.35 2.35 0 0 0-.47 1.25zM94.58 26.24a.75.75 0 0 0 .16-.21.66.66 0 0 0-.63-.73c-.61.17.04 1.17.47.94zM8 27.02a3.47 3.47 0 0 0 .94-.57c.36-.51.14-1.42-.68-1a.21.21 0 0 0-.1.1c-.19.26-.32.59-.57 1-.14.25-.63.88-.42 1.09s.6-.46.83-.62zM100.37 26.47a1.32 1.32 0 0 0-.52-.89.81.81 0 0 0 .16.83.4.4 0 0 0 .36.06zM88.43 26.47c.4-.1.1-.72-.1-.78a.2.2 0 0 0-.16.05c-.58.15-.04.73.26.73zM12.22 25.87a1.06 1.06 0 0 0-.94.83.5.5 0 0 0 .21.37c.3.07.33-.45.47-.63s.52-.2.47-.47a.17.17 0 0 0-.21-.1zM12.95 26.13c-.48.06-.35.88 0 .83s.39-.87 0-.83zM95.77 26.13c-.68.27.23 2.12.68 2 .28-.09.19-.49.05-1s-.23-1.19-.73-1zM9.41 26.34a.73.73 0 0 0-.52.78 2.72 2.72 0 0 0 .31.52 4.94 4.94 0 0 0-.21.68s.09.2.1.21a1.16 1.16 0 0 0 1.25-.26.82.82 0 0 0 0-.84 6 6 0 0 1-.57-.21c-.05-.1.13-.37.1-.57a.35.35 0 0 0-.46-.31zM17.54 27.8a.46.46 0 0 0 .63.16.62.62 0 0 0 .1-.73.43.43 0 0 0-.36 0 .47.47 0 0 0-.37.57zM13.11 28.17c.41.2 1.27-.84.47-.89a.67.67 0 0 0-.47.16.6.6 0 0 0 0 .73zM92.91 27.33c-.33.18 0 .79.26.73s.12-.93-.26-.73zM94.58 28.17a.58.58 0 0 0-.05-.57.93.93 0 0 0-.52-.16.14.14 0 0 0-.1.05c-.54.33.41.98.67.68zM14.46 27.75a.39.39 0 1 0 0 .78.54.54 0 0 0 .31-.78.41.41 0 0 0-.31 0zM6.54 29.11a1.74 1.74 0 0 0 .36-1.15c-.23-.23-.35.35-.47.57a1.31 1.31 0 0 0-.31.63.41.41 0 0 0 .42-.05zM8 28.11a.17.17 0 0 0-.16.05c-.42 0-.95 1-.57 1.15s1.12-.94.73-1.2zM15.19 28.38c-.59.15-.58 1.4.16 1.2.42-.11.57-1.39-.16-1.2zM11.33 28.47c-.35.09-.32.23-.42.57s-.21.61.05.73a1.09 1.09 0 0 0 .52-.16 1.52 1.52 0 0 0 .26-.57c.09-.48-.02-.71-.41-.57zM95.05 28.47c-.89.25.26 1.1.57.78a.57.57 0 0 0-.05-.63.64.64 0 0 0-.52-.15zM101.41 29.52a.56.56 0 0 0 .63 0 2.4 2.4 0 0 0-.42-1c-.07-.07-.11 0-.16 0-.46.11-.27.85-.05 1zM100.52 30.25c.47-.14.42-1.84-.26-1.67s-.39 1.89.26 1.67zM92.49 28.64a.34.34 0 0 0-.31 0c-.32.14-.17.56.05.73.54.43.62-.52.26-.73zM86.71 28.69a.32.32 0 0 0-.21.42.52.52 0 0 0 .68.16.38.38 0 0 0-.47-.58zM8.31 31.97c.28.16.51-.36.63-.63a2.34 2.34 0 0 0 .26-1c0-.2-.21-.3-.26-.57-.14-.7.15-1.18-.47-1-.45.14-.25.56-.16.73a.51.51 0 0 1 .16.37 4.51 4.51 0 0 1-.26.68 2.58 2.58 0 0 0 .1 1.42zM98.33 28.9c-.33.25.09.57.16.94v.57c0 .16.19.34.26.52a1.56 1.56 0 0 0 .31.73.41.41 0 0 0 .52-.26c.14-.45-.5-.87-.52-1.15a4.33 4.33 0 0 1 .21-.63 1 1 0 0 0-.94-.72zM89.32 30.04a.4.4 0 0 0 0-.37.55.55 0 0 0-.62-.47c-.77.27.35 1.11.62.84zM97.71 29.42a.14.14 0 0 0-.1.05c-.68.24.11 1.14.47.78a.61.61 0 0 0-.37-.83zM5.18 31.61a1.18 1.18 0 0 0 .68-.21 1.1 1.1 0 0 1 .73-.16 2.43 2.43 0 0 1 .1.42c.34.81 1.16-.23.83-.63a.48.48 0 0 0-.37-.05 1 1 0 0 1-.47.05 2.94 2.94 0 0 1-.1-.68.75.75 0 0 0-.68-.47.52.52 0 0 0-.42.47c-.13.34-.65 1.12-.3 1.26zM99.69 33.85c-.27.14-.67-.37-.89-.16s.68 1.41 1.09 1.2a.67.67 0 0 0 .16-.62c.39.05.39-.1.52-.31a.59.59 0 0 1 .21-.21c.18-.11.45-.07.52-.16a2.76 2.76 0 0 0-.05-1.51 1.12 1.12 0 0 1 .26-1.15 1.56 1.56 0 0 1 .26-.05.5.5 0 0 0 .1-.21.58.58 0 0 0-.83-.57c-.08.06-.11.37-.21.47a1 1 0 0 0-.42.21 1.35 1.35 0 0 0-.05 1.09c.14.42.54.59.42 1s-.82.27-1 .52a.68.68 0 0 1-.09.46zM10.77 31.76c.7 0 .44-1.82-.31-1.46-.43.23-.18 1.49.31 1.46zM16.77 91.09c-.47.22-.22 1.49.31 1.46.69-.08.42-1.82-.31-1.46zM96.2 31.47a.61.61 0 0 0 .16-.94.66.66 0 0 0-.68-.1c-.36.14-.34.29-.21.57a.72.72 0 0 0 .73.47zM101.83 31.87a1.17 1.17 0 0 0 .89 1c.86-.09.27-1.81-.05-2a.42.42 0 0 0-.37-.05 1 1 0 0 0-.47 1.05zM13.21 31.03c-.17 0-.61.64-.36.89a.49.49 0 0 0 .52-.05 1.49 1.49 0 0 0 .21-.68c-.07-.19-.18-.2-.37-.16zM97.97 31.03c-.46.27.13.9.42.78s.03-1.04-.42-.78zM93.77 31.71c-.62.17-.09 1 .31.78a.59.59 0 0 0 0-.78.32.32 0 0 0-.31 0zM15.77 33.07c.38 0 .71-1 .1-1s-.59 1-.1 1zM7.42 32.91a1.41 1.41 0 0 0 .47.42 1.13 1.13 0 0 0 .16.47.71.71 0 0 0 .72-.73 1 1 0 0 0-.52-.57 1.79 1.79 0 0 0-.21-.31.38.38 0 0 0-.26.05.66.66 0 0 0-.36.67zM98.13 33.47c.44-.19-.3-1.31-.73-1s.37 1.11.73 1zM3.98 34.73c.43.08.4-.51.68-.73a2.59 2.59 0 0 0 .52-.16 2.23 2.23 0 0 0 .63-.88c.15-.48 0-.58-.42-.52a1.06 1.06 0 0 0-.63.36c-.12.17-.09.7-.21.83a3.4 3.4 0 0 0-.63.16s-.09.16-.1.21c-.11.3-.16.67.16.73zM92.18 33.47c.59 0 .32-1-.16-.89s-.25.89.16.89zM95.31 33.47a.38.38 0 0 0-.52-.47c-.62.26.31 1.03.52.47zM103.39 35.05a.69.69 0 0 0 .73.68c.45-.11.19-.67.16-1a3.24 3.24 0 0 0-.26-1.09c-.15-.37-.22-.65-.47-.52-.44.23.09.66.1 1a8.83 8.83 0 0 0-.26.93zM10.45 33.95a.52.52 0 0 0 .42-.78.4.4 0 0 0-.42-.05.42.42 0 0 0 0 .83zM102.56 33.12c-.57.23 0 1.09.42.89s.08-1.1-.42-.89zM6.28 33.54s-.12-.22-.1-.21a.24.24 0 0 0-.21 0c-.25 0-.61.43-.37.68s.7-.12.68-.47zM6.49 36.14a.64.64 0 0 0 .68.52c.7 0 .72-.87.68-1.51-.06-.86.16-1.7-.26-1.67a.59.59 0 0 0-.42.57 6.49 6.49 0 0 1 .05 1.15c-.13.46-.75.48-.73.94zM97.03 34.37c-.62.16-.1 1 .31.78s.06-.87-.31-.78zM101.88 34.58a.78.78 0 0 0-.31 1.15c.73 1.24 1.52-1.49.31-1.15zM92.29 35.47c.44-.22-.05-1-.36-.89-.69.22-.16 1.17.36.89z"></path><path d="M99.38 35c-.47.28.12 1.2.47 1s-.08-1.26-.47-1zM13.42 35.83c.37.06.64-.8.05-.68a.35.35 0 0 0-.05.68zM9.67 35.26c-.63 0-.58 1.18.05.78a1.06 1.06 0 0 0 .21-.57.2.2 0 0 0-.26-.21zM12.32 35.31c-.66.14-.15 1.05.31.68a.72.72 0 0 0 .1-.31.37.37 0 0 0-.41-.37zM93.9 35.78a.3.3 0 0 0-.37-.37c-.42.2.24.79.37.37zM4.3 36.82c.06-.06.19 0 .26-.1.43-.33.63-1.46-.16-1.25a.6.6 0 0 0-.42.47c-.14.27-.64 1.24-.31 1.41s.34-.27.63-.53zM94.53 36.77c.44.32.72-.07.57-.47a.44.44 0 0 0-.57-.37c-.43.16-.21.69 0 .84zM3.05 36.98c.21 0 .53-.85.1-1-.14.15-.52 1.02-.1 1zM5.44 36.25a.45.45 0 0 0 .1.89c.46-.03.62-1.08-.1-.89zM8.77 36.25c-.76.13-.23 1 .21.89a.56.56 0 0 0 .26-.47.38.38 0 0 0-.47-.42zM98.96 36.25c-.56.11-.2 1 .16.94s.28-1.03-.16-.94zM100.05 36.4c-.32.21.12.65.31.57s-.11-.69-.31-.57zM100.94 36.66c-.52.19-.07 1 .31.89s.2-1.08-.31-.89zM102.92 36.66c-.68.19-.32 1.47.21 1.46s.74-1.72-.21-1.46zM98.54 37.08c-.17-.36-.33-.43-.47-.37-.49.22 0 1.5.31 1.46s.31-.76.16-1.09zM2.77 38.23c.4.11 1-1.22.31-1.09-.36.05-.81.96-.31 1.09zM103.7 38.12a7.77 7.77 0 0 0 .21.78 5.45 5.45 0 0 1-.21 1.15c0 .2.23.29.31.57a3.8 3.8 0 0 0 .11.63c.13.2.5.22.73.47a9 9 0 0 0 .68 1.09c.14.09.46.07.57.16-.53.38-.59 1-.52 1.93a4 4 0 0 1 .16 1.15.75.75 0 0 1-.26.1c-.39.2-.19.68 0 1.09a2.14 2.14 0 0 0 .52.78.92.92 0 0 0 .21-.47 2.65 2.65 0 0 0 .21-.52c0-.15-.14-.31-.16-.52s.1-.36.1-.63a7.83 7.83 0 0 1-.16-1.36 2.08 2.08 0 0 1 .57-.35c.27-.3.37-1.41-.37-1.25a1 1 0 0 0 .37-.45 3 3 0 0 0-.42-1.46 5.13 5.13 0 0 0-.52.94 1.34 1.34 0 0 1-.57-.73 3.08 3.08 0 0 1-.42-.89 3 3 0 0 0 0-.52c0-.14-.75-.51-.52-.89a2.67 2.67 0 0 1 .78-.16c.36-.27 0-.75-.16-1.1a1 1 0 0 0-.52-.62 1 1 0 0 0-.72 1.08zM9.61 38.02c.4 0 .38-1.06-.21-.83s-.13.87.21.83zM97.24 38.07c.5-.08.27-1.05-.26-.89s-.15.96.26.89zM3.2 40.05a5.64 5.64 0 0 0-.57.83c0 .27.2.53.21.94a1.39 1.39 0 0 0-.05.89.52.52 0 0 0 .63-.1c.3-.36-.18-1.09-.1-1.62s.8-.69 1.09-1 .15-1 .68-1c.34 0 .25.3.42.42.56.39.41-.49.57-.78.07-.13.42-.24.57-.42s.36-1.06-.26-.83-.24 1-.73 1.09c-.23 0-.46-.22-.78-.21a2.79 2.79 0 0 0-.73.37 2.42 2.42 0 0 0-.68.21 1.35 1.35 0 0 0-.16.57c-.05.16-.06.51-.11.64zM105.47 37.86a.23.23 0 0 0-.16-.37.22.22 0 0 0 .16.37zM102.5 38.9c.35-.15.1-.94-.26-.83-.58.17-.07.97.26.83zM101.56 38.9c-.16-.28-.21-.88-.62-.62s.42 1.4.62 1.62a.67.67 0 0 0 .63.37.54.54 0 0 0 .21-.62 1.19 1.19 0 0 0-.52-.31 1.39 1.39 0 0 1-.32-.44zM14.31 38.47a.53.53 0 0 0-.16.83c.67.48.83-1.01.16-.83zM7.53 38.59c-.41.12-.39.87.05.83s.54-.95-.05-.83z"></path><path d="M105.01 39.95a.55.55 0 0 0 .78.47.79.79 0 0 0 .31-.52 2.12 2.12 0 0 0-.16-.62c-.1-.34-.1-.61-.36-.57a1.69 1.69 0 0 0-.57 1.24zM2.68 39.69a.9.9 0 0 0-.16-.31c-.36-.24-.54.19-.63.47a3.81 3.81 0 0 0-.26 1.41 1.72 1.72 0 0 0 1.05-1.57zM99.69 39.47c-.55.24.06.92.36.78s.05-.96-.36-.78zM95.94 39.84a.72.72 0 0 0 .1.78 2.27 2.27 0 0 0 1.36-.21.49.49 0 0 0 0-.47c-.11-.38-.17-.33-.47-.31a3.26 3.26 0 0 0-.31.16 1.49 1.49 0 0 0-.68.05zM7.27 40.57c.29-.08.29-.74-.1-.68s-.23.77.1.68zM8.15 40.05c-.32.09-.41.63-.1.73.57.19.72-.9.1-.73zM99.77 41.62c.29-.29-.38-.8-.47-.94a1.29 1.29 0 0 0-.36-.68.18.18 0 0 0-.16.05c-.51.13-.21 1 0 1.2a1.07 1.07 0 0 0 .99.37zM13.77 40.26c-.32.06-.41.68-.05.68s.52-.76.05-.68zM94.06 40.26c-.28.13-.31.81.1.78s.41-1.01-.1-.78zM5.24 41.67c-.27.08-.44-.54-.89-.36a.53.53 0 0 0-.1.73c.1.11.19-.08.47.05a3.58 3.58 0 0 0 .42.63c.49.07.21-.66.63-.89a.58.58 0 0 1 .31.05.66.66 0 0 0 .42-.73.54.54 0 0 0-1-.21c-.19.36.12.61-.26.73zM104.64 42.66a1.25 1.25 0 0 0-.57-.68 1.29 1.29 0 0 1-.31-.42 2.26 2.26 0 0 0-.11-.47.66.66 0 0 0-.47-.1 2 2 0 0 0-.31.42c-.06-.45-.7-.3-.78-.05a.54.54 0 0 0 .57.68.91.91 0 0 0 .31-.57c.27.7 1 .74 1.1 1.77 0 .16-.06.45-.05.63a3.39 3.39 0 0 0 .26 1c.07.14.38.38.42.47.27.72-.74.16-.73.16a3.27 3.27 0 0 1-.36.42c-.1 0-.16-.14-.31.05s-.11 1 .26 1 .26-.55.47-.68a2.48 2.48 0 0 1 .37 0 3.66 3.66 0 0 0 .94-.21 4 4 0 0 0-.36-1.3 7.74 7.74 0 0 1-.37-1.3c-.05-.25.06-.63.03-.82zM7.84 41.67c0-.27-.22-.36-.52-.26s-.5.55-.21.78a.57.57 0 0 0 .73-.52zM100.31 41.88c-.4.2-.09 1 .26.89s.28-1.16-.26-.89zM94.22 42.14c-.47.22-.08.81.26.73s.29-.99-.26-.73zM1.95 42.19c-.41.19-.37 1.54.16 1.56s.71-1.96-.16-1.56zM13.21 42.24c-.72.21 0 1.14.36.89a.51.51 0 0 0-.36-.89z"></path><path d="M103.65 44.47c.55-.19-.26-1.34-.42-1.46a1.26 1.26 0 0 0-.57-.21 3.68 3.68 0 0 0-.42.31c-.07 0-.23 0-.26.05a.63.63 0 0 1-.21.31.65.65 0 0 0-.47-.31.56.56 0 0 0-.47.52.79.79 0 0 0 .68.63 1 1 0 0 0 .31-.21c.14-.22.1 0 .21.1.41.32.46-.38.63-.42.47-.11.47.88.99.69zM3.77 43.6a4.56 4.56 0 0 0 .63.94c.12.46-.13.79.16.89s.4-.27.42-.68c0-.22-.11-.49-.1-.68a2.45 2.45 0 0 0 .1-.83.67.67 0 0 0-.78-.31.63.63 0 0 0-.43.67zM9.93 42.97c-.4.08-.46.88 0 .83s.53-.94 0-.83zM1.12 43.39a6.73 6.73 0 0 0-.37 2.19c.75-.21 1.18-1.77.37-2.19zM98.18 44.47c.34-.08.24-1.21-.26-1s-.01 1 .26 1zM3.36 44.01a.41.41 0 0 0-.26.05 1.23 1.23 0 0 0-.68 1.25.83.83 0 0 0 .52.83c.2-.02.89-1.93.42-2.13zM97.92 45.47c.33-.1.36-1-.21-.83s-.18.9.21.83zM7.48 44.74a.62.62 0 0 0-.42.68c.32.56 1.01-.73.42-.68z"></path><path d="M5.18 44.95c-.34.11-.45 1 0 1s.59-1.17 0-1zM10.4 46.2a.53.53 0 0 0 .36-.1 1.43 1.43 0 0 0 .1-.94.19.19 0 0 0-.21-.16.79.79 0 0 0-.25 1.2zM106.77 46.15a2.12 2.12 0 0 0-.26.89c0 .31.58.91.94.68s0-.75 0-1.15a13 13 0 0 0-.16-1.36.38.38 0 0 0-.16-.05.85.85 0 0 0 0 .52 2.37 2.37 0 0 1-.36.47zM6.12 45.26c-.36.16-.36 1.17.21 1 .38-.04.44-1.26-.21-1zM100.21 46.36a.51.51 0 0 1 .16.31c.6.6 1.35-.61.63-.78a2.75 2.75 0 0 0-.63.21c-.26 0-.39-.56-.78-.36a.37.37 0 0 0-.16.52 2.09 2.09 0 0 0 .78.1zM102.61 45.79a.73.73 0 0 0-.47.78.53.53 0 0 0 .57.52c.36-.08.68-1.49-.1-1.3zM.96 47.47a4.07 4.07 0 0 0 .78.31 1.75 1.75 0 0 0 .63.37 1.31 1.31 0 0 0 .94-1.25.55.55 0 0 0-.21-.31c-.36-.13-.28.31-.57.26a1.27 1.27 0 0 1-.31-.42.74.74 0 0 0-.57-.1.78.78 0 0 0-.69 1.14zM7.77 46.47c-.34.08-.6 1.17-.1 1.2s.65-1.33.1-1.2zM104.9 46.93c-.49.17-.19 1.53.21 1.51s.33-1.7-.21-1.51zM97.19 47.14c-.5.21.06.78.31.68s.09-.85-.31-.68zM96.67 47.4c-.07-.16-.14-.14-.37-.1a.58.58 0 0 0-.47.63c.16.54.94-.17.84-.53zM5.55 47.61c-.47.13-.43 1 .05 1s.59-1.14-.05-1zM93.85 48.34c.32-.14.13-.85-.26-.73-.57.18-.09.86.26.73zM.54 50.74c.35-.05.19-.37.26-.78a2.29 2.29 0 0 1 .16-.52 4.56 4.56 0 0 1 .31-.36c.29-.5.08-1.21-.21-1.2-.48 0-.38.52-.52 1.15a1.43 1.43 0 0 1-.21.36c-.2.36-.32 1.43.21 1.35zM4.04 49.28c.66-.06.4-1.56-.31-1.25a.7.7 0 0 0 .31 1.25zM107.25 48.7a1.37 1.37 0 0 1-.26-.31.53.53 0 0 0-.52-.16 1.12 1.12 0 0 0-.26 1.09.56.56 0 0 0 .42.47c.31 0 .2-.23.52-.21s.41.58.63.36a1.61 1.61 0 0 0-.1-1.2 2.43 2.43 0 0 0-.43-.04zM103.03 48.29c-.54.24 0 1.47.36 1.46a.82.82 0 0 0 .31-1.2.67.67 0 0 0-.67-.26zM6.12 49.33c.45.1.31-.92-.05-.73a.47.47 0 0 0 .05.73zM107.87 51.42a.61.61 0 0 1-1-.63c-.1-.09-.36-.11-.47-.21a2.12 2.12 0 0 1-.21-.42 3.62 3.62 0 0 1-.26-.37 1.41 1.41 0 0 0-.26-.89c-.36-.18-.6.13-.52.57 0 0 .73 1.73.73 1.72a.41.41 0 0 1 .37.31c0 .23-.09.19-.16.31a.38.38 0 0 1-.16.31.75.75 0 0 0-.36-.42c-.68-.21-.77 1.48-.1 1.46.34 0 .22-.38.52-.52.07.05.12.63.47.57.17 0 0-.07.16-.26.46-.7.28.48.63.47a1.24 1.24 0 0 0 .31-.83 4 4 0 0 1 0-.42 2.18 2.18 0 0 0 .42-.31.56.56 0 0 0-.11-.44zM102.04 50.37a.75.75 0 0 0 .21-1 1.1 1.1 0 0 0-.89-.37c-1.06.18.22 1.47.68 1.37zM96.04 49.07c-.51.25.39.6.31.1-.03-.2-.16-.17-.31-.1zM2.11 51.1a.73.73 0 0 0 .66.37.89.89 0 0 0 .05-1 6.08 6.08 0 0 0-.63-.62c-.2-.33-.12-.87-.63-.63a.71.71 0 0 0-.26.63 2.18 2.18 0 0 0 .81 1.25zM4.4 51.26a.46.46 0 0 0 .16-.73.7.7 0 0 0-.63-.26.38.38 0 0 0-.42.37.79.79 0 0 0 .89.62zM6.12 51.42a1.07 1.07 0 0 0 .31-.89.37.37 0 0 0-.47-.26 1.36 1.36 0 0 0-.89.83.65.65 0 0 0 1.05.32z"></path><path d="M105.06 50.69c-.06-.33-.24-.47-.52-.37-.63.22-.15 1.41.36 1.15a1 1 0 0 0 .16-.78zM8.31 50.37c-.55.2-.08.83.05 1.15s.17.88.52.83.1-.72-.05-1.2-.13-.92-.52-.78zM10.34 51.68c.41-.06.41-1.17-.16-1s-.3 1.07.16 1zM98.33 50.69c-.45.16-.24.93.16.83s.35-1.05-.16-.83zM102.97 52.56c.32 1.58 1.83-1.36.68-1.3a1 1 0 0 0-.68 1.3zM2.77 54.33a1.57 1.57 0 0 0 .42-.68c.07-.26 0-.58.05-.73a4.21 4.21 0 0 1 .26-.47.94.94 0 0 0 .16-.62.33.33 0 0 0-.42-.31 1.08 1.08 0 0 0-.36.89 5.87 5.87 0 0 1-.26.83c-.11.2-.78.61-.63 1a.55.55 0 0 0 .78.09zM99.85 51.47c-.21.09-.14.23-.05.31.37.43.52-.45.05-.31zM100.57 51.57a.46.46 0 0 0-.31.42 1.69 1.69 0 0 0 .16.37c.4.31.72-.17.62-.57-.05-.22-.2-.32-.47-.22zM.54 53.24a.62.62 0 0 0 .42-.57 1.5 1.5 0 0 0-.21-.94.34.34 0 0 0-.31 0c-.56.12-.59 1.58.1 1.51zM1.64 51.73a1.16 1.16 0 0 0 .1 1.56c.55.04.68-1.94-.1-1.56zM98.77 52.09c-.38.14-.33 1 .05 1.09.55.08.5-1.29-.05-1.09zM4.77 52.2a.4.4 0 0 0-.47-.05c-.43.22-.08.66-.05 1.15s-.22.93.1 1c.62.21.48-.68.47-1.25a1.24 1.24 0 0 0-.05-.85zM8.1 53.81c.44 0 .44-1.14-.1-.94-.37.14-.36.97.1.94zM102.97 55.17a.87.87 0 0 0 .26-.52 3.52 3.52 0 0 0-.16-1c-.13-.47-.3-.83-.57-.68s0 .58.05.94c.11.56-.03 1.34.42 1.26zM96.2 52.98a.49.49 0 0 0 .21.89c.49-.05.36-1.14-.21-.89zM105.68 55.47c.45-.23-.36-1.75-.52-1.88a.69.69 0 0 0-.57-.1 2 2 0 0 0-.05 1.56 2.48 2.48 0 0 0 1.14.42z"></path><path d="M107.35 55.06c.13-.06.67-.2.62-.52a.93.93 0 0 0-.47-.31c-.16-.15-.19-.37-.31-.47a.66.66 0 0 0-.52-.1 1.86 1.86 0 0 0-.42.94 1.7 1.7 0 0 1 .05.47c-.06.18-.35.26-.42.42a7 7 0 0 0-.05.78 3.3 3.3 0 0 0-.57.68.63.63 0 0 0 .26.68 6.09 6.09 0 0 1 .73.1 2 2 0 0 1-.05 1.15 3.9 3.9 0 0 1-.52.63 4.06 4.06 0 0 0-.1.73 7.86 7.86 0 0 1-.94.89 1.06 1.06 0 0 0 .05 1.2c.27.1.36-.19.47-.31a5.41 5.41 0 0 0 .37-.42 7.3 7.3 0 0 0 .42-1.15s.11-.09.16-.16.05-.13.1-.21a6.91 6.91 0 0 0 .89-1c.22-.62-.13-.91.31-1.09a.7.7 0 0 0 .37-.1 2 2 0 0 0 .1-1.15c-.1-.1-.14 0-.31.16a.49.49 0 0 1-.42.21.72.72 0 0 1-.62-.57 3.37 3.37 0 0 1 .1-1 1.58 1.58 0 0 1 .72-.48zM.7 54.39a.52.52 0 0 0-.52-.47.92.92 0 0 0 0 1.09.59.59 0 0 0 .52-.62zM1.12 55.17c.09.22.17.4.21.52.12.41.19 1 .47.94s.22-.45.16-1c-.09-.75 0-1.5-.57-1.41s-.44.53-.27.95zM100.05 55.47c.36-.08.28-1.08-.16-.94s-.28 1.05.16.94zM5.97 56.58c.52-.13 0-2.25-.57-2s.11 2.11.57 2zM100.84 54.65c-.44.24.09.85.37.57s-.12-.75-.37-.57zM104.17 56.52c.32-.11.22-.5.05-.94s-.34-.79-.68-.63a.74.74 0 0 0-.26.57 1.08 1.08 0 0 0 .89 1zM3.67 56.21c.11-.12.37 0 .47-.16a.55.55 0 0 0 .05-.47.35.35 0 0 0-.52-.21c-.35.15-.14.5-.31.78a.92.92 0 0 1-.31.21.94.94 0 0 0-.57.52 1.33 1.33 0 0 0 .37 1.35c.15.29.17.67.42.63.44-.08 0-1 .05-1.3s.15-.36.21-.63a2.44 2.44 0 0 1 .14-.72zM10.24 56.42c.34-.09.23-1.21-.26-1s-.1 1.05.26 1zM101.93 56.06c-.35.13-.31.92.1.89s.41-1.08-.1-.89zM1.43 61.84c.4-.3-.1-1.92.63-1.15a.46.46 0 0 0 .31.31.54.54 0 0 0 .26-.62 8.29 8.29 0 0 0-.52-.83c-.1-.32 0-.89-.05-1.25a1.39 1.39 0 0 0-.16-.37c-.15-.13-.41-.06-.47-.16a3.8 3.8 0 0 1 0-.68c0-.25-.29-1-.68-.94s-.17.36-.31.83-.23.27-.26.52a.91.91 0 0 0 .16.73 3.1 3.1 0 0 1 .78-.21 6.22 6.22 0 0 1 .16.63 3.81 3.81 0 0 1 .21.63 1 1 0 0 1-.47 1.09 1.24 1.24 0 0 0-.52-.1 1.23 1.23 0 0 0 .05.78 1.12 1.12 0 0 0 .16.78.62.62 0 0 0 .72.01zM9.35 56.68c-.37.1-.28.82.05.78s.37-.89-.05-.78zM12.22 57.98c.62.14.69-1.19.05-.94-.27.11-.44.85-.05.94zM97.71 57.98c.29 0 .34-.91-.1-.73-.3.12-.25.77.1.73zM101.77 58.09c.41.1.73-.85.1-.68-.28.06-.41.6-.1.68zM102.66 59.55c.38.21.83-.7.89-1.3s-.15-.75-.42-.68c-.41.12-.21.49-.31 1s-.44.82-.16.98z"></path><path d="M104.9 58.35a.68.68 0 0 1 .16.37c.31.44.77 0 .73-.47s-.33-.21-.63-.31-.44-.58-.83-.36a.53.53 0 0 0-.1.68c.13.13.45-.04.67.09zM6.9 58.47c.22-.07.2-.84-.16-.73s-.09.85.16.73zM5.24 59.29c.56-.08.35-1.6-.31-1.36s-.23 1.43.31 1.36zM107.61 58.09c-.34.12-.23 1-.1 1.3a.69.69 0 0 0-.52.63 3.8 3.8 0 0 0 .26.57c.07.24-.11.61.21.57a6.43 6.43 0 0 0 .21-1.3 4.08 4.08 0 0 1-.05-.42c0-.1.13-.21.16-.36.07-.4.06-1.07-.17-.99zM100.99 58.56c-.52.17-.35 1.27.16.83a2.58 2.58 0 0 0 .21-.37c.11-.37-.04-.55-.37-.46zM7.48 59.81c.39-.18 0-1.34-.47-1.15s.06 1.33.47 1.15zM9.67 60.28c.35 0 .7-1.39 0-1.2-.43.11-.58 1.24 0 1.2zM2.77 59.76c.3-.1.11-.94-.31-.62a.38.38 0 0 0 .31.62zM103.96 60.12c.38-.13.12-1.13-.31-1-.59.21-.1 1.15.31 1zM4.66 60.47a.43.43 0 0 0-.52-.57.49.49 0 0 0-.26.57.43.43 0 0 0 .78 0zM98.85 60.54c.25-.06.32-.79-.1-.68s-.21.76.1.68zM3.05 62.31c.24-.1 0-.5.16-.89a3 3 0 0 0 .47-.78.63.63 0 0 0-.63-.68 1.06 1.06 0 0 0-.21.94 1.76 1.76 0 0 0-.1 1.2.32.32 0 0 0 .31.21zM92.77 60.47c.17.17.4 0 .47-.21s0-.34-.21-.31-.48.33-.26.52zM4.92 60.17c-.28.11-.28.71.05.73s.33-.88-.05-.73zM6.69 60.95a.63.63 0 0 0-.63-.57c-.97.27.83 1.76.63.57zM103.23 60.59a.91.91 0 0 0-.63.31 2.21 2.21 0 0 0 .05 1.72c.26.1.47-.51.63-.78.3-.52.75-1.31-.05-1.25zM4.3 64.86c.53-.14-.06-.85-.26-1.46a2.1 2.1 0 0 1-.1-.57c0-.5.31-1.32-.31-1.09a1.34 1.34 0 0 0-.42 1c-.01.56.64 2.25 1.09 2.12zM106.67 62.41a.75.75 0 0 1-.16.36 1 1 0 0 0-.52-.68 1.14 1.14 0 0 0-.42.16 1.69 1.69 0 0 0-.21.57.72.72 0 0 0 .89.78.52.52 0 0 0 .31-.42 1 1 0 0 1 .1-.31c.63.37.65-.59.73-1.09a.4.4 0 0 0-.16-.05 1.29 1.29 0 0 1-.56.68zM97.34 62.68a.88.88 0 0 0 .52.31.363.363 0 1 0-.36-.63c-.12-.1-.05-.39-.16-.47a.5.5 0 0 0-.73.52 1 1 0 0 0 .73.27zM101.3 62.21a.33.33 0 0 0-.47-.31 1.72 1.72 0 0 0-.47 1 3.05 3.05 0 0 0-.42.89.46.46 0 0 0 .42.42c.36-.06.15-.52.26-.89s.72-.61.68-1.11zM5.39 63.3c.38-.11.37-1.48-.21-1.25-.41.16-.41 1.42.21 1.25zM1.95 64.6a3.15 3.15 0 0 0 .1-.89 9.28 9.28 0 0 0 .26-1c0-.37-.31-.68-.57-.52-.09.05-.07 0-.1.1a3.7 3.7 0 0 1-.1.83 7.68 7.68 0 0 1-.57.57 2.12 2.12 0 0 0 .21.94.81.81 0 0 0 .77-.03zM98.59 62.68a.26.26 0 0 0-.21.26.38.38 0 0 0 .47.52c.36-.13.28-.99-.26-.78zM8.21 63.47c.32 0 .17-.82-.21-.62a.35.35 0 0 0 .21.62z"></path><path d="M106.05 63.93a3.47 3.47 0 0 0-.42-.26.45.45 0 0 0-.26.1c-.66.14-.47-.4-.78-.63-.13-.09-.57-.12-.83-.26a.72.72 0 0 0-.52.83c0 .33.56.19.73.26s.21.21.37.31a3.78 3.78 0 0 0 .36.1 1.38 1.38 0 0 1 .42.94V66a.57.57 0 0 0 .47.47c.52-.1 0-.85.1-1.2a1 1 0 0 1 .42-.52 2.6 2.6 0 0 1 .57.21.92.92 0 0 0 .36-.73 1.09 1.09 0 0 0 0-.78c-.37-.18-.78.47-.99.48zM9.67 63.3c-.3.16-.25 1.18.16 1.15s.24-1.37-.16-1.15zM2.63 65.47a1.12 1.12 0 0 0 .94.52.75.75 0 0 0-.05-.94 4.94 4.94 0 0 1-.52-.78c-.12-.34 0-.89-.47-.73s-.1 1.67.1 1.93zM10.77 63.77a.54.54 0 0 0 .1 1c.52-.02.62-1.3-.1-1zM5.34 66.12c.29-.18-.07-.53.1-.94a1.39 1.39 0 0 0 .52-.42.77.77 0 0 0-.73-.94c-.49.14-.18.43-.26 1 0 .19-.27.52-.26.68s.38.77.63.62zM8.15 65.85c.52-.2-.22-1-.42-1.41s-.08-.75-.47-.63a.58.58 0 0 0-.31.63 2 2 0 0 0 .57.78.94.94 0 0 0 .63.63zM102.35 63.98a.7.7 0 0 0-.37.57l.1.26c.59.47 1.08-1.12.27-.83zM10.77 65.8a.58.58 0 0 0-.05-.94v.05c-.56.05-.36 1 .05.89zM3.31 68.77c.13-.09.07-.19.21-.31.34.14 1.38.87 1.56.26a1.53 1.53 0 0 0-.26-.73 4.06 4.06 0 0 0-.63-.21c-.08 0-.15-.25-.26-.31a1.91 1.91 0 0 1-.42-.16 1.88 1.88 0 0 1 .05-.31 1 1 0 0 0-.26-.47 3.19 3.19 0 0 1-.63-.05l-.21-.16a1.21 1.21 0 0 1-.16-.78c-.19-.57-.88-.14-.94.16a2 2 0 0 0 .16.63 1.29 1.29 0 0 0 .16.63.85.85 0 0 0 .36-.05 1 1 0 0 1 .31 1c0 .23-.3.38-.31.57a3.63 3.63 0 0 0 .16.57c.13.45.25.75.37 1.09.06.19 0 .5.26.52a.53.53 0 0 0 .05-.57 2.62 2.62 0 0 1-.16-1c.05-.3.43-.2.59-.32zm.16-1.3a2.75 2.75 0 0 0-.1.78 1 1 0 0 1-.47-.21c-.13-.34.04-.73.56-.57zM103.44 67c.22-.07.64-1.53.26-1.72a.28.28 0 0 0-.26.05.73.73 0 0 0-.26.1c-.24.24-.53 1.83.26 1.57zM100.57 65.39a.47.47 0 0 0-.05.83c.4.06.59-.96.05-.83zM102.35 65.47c-.53.11-.46 1.14.1 1 .39 0 .46-1.1-.1-1zM96.04 67c.38 0 .77-1.5 0-1.25-.37.12-.52 1.25 0 1.25zM101.41 66.32a.4.4 0 0 0-.37 0 1.07 1.07 0 0 0-.47.21 1.26 1.26 0 0 0-.31 1.09.74.74 0 0 0 .68-.1c.19-.12.72-.96.47-1.2zM5.97 66.9c-.59.12-.61 1.11 0 1.15s.8-1.32 0-1.15zM105.68 67a1.67 1.67 0 0 0-.31.42.54.54 0 0 1-.42.31 2.1 2.1 0 0 1-.63-.73.39.39 0 0 0-.37-.05.59.59 0 0 0-.21.05 1.86 1.86 0 0 0-.16.94c.1.52.47.36.89.31h.52a2.38 2.38 0 0 1 .42-.16 5.19 5.19 0 0 0 .52.16 1.91 1.91 0 0 0 .31-1.09.47.47 0 0 0-.56-.16zM10.77 67.94c.33-.07.21-.92-.21-.68s-.15.76.21.68zM93.77 67.68a.61.61 0 0 0-.31.94c.42.42 1.31-1.15.31-.94zM98.54 67.78c-.35.05-.5.77-.21.89.44.19.76-.97.21-.89zM13.31 68.67c.49-.13.2-.94-.31-.78-.68.21-.05.88.31.78zM7.84 69.76l.21-.1c.32-.35-.47-1.68-.83-1.46s.23 1.63.62 1.56zM8.47 69.47c.3.05.29-.36.36-.73a1.89 1.89 0 0 0 .1-.37.26.26 0 0 0-.42-.21c-.35.18-.39 1.31-.04 1.31zM102.97 68.93c.12-1.36-1.55-.56-1.15.42a.53.53 0 0 0-.63.47 1 1 0 0 0-.16.42s.12.27.1.26c.16.13.54-.1.73.05a1 1 0 0 1 0 .89c-.51-.39-.56.4-.73.63a4.22 4.22 0 0 1-.57.36c-.27.41 0 1.67.63 1.41.33-.15-.09-.57 0-.94s.56-.54.68-.89a2.56 2.56 0 0 0 .05-.47c.62.62.94-.91.63-1.3a2.62 2.62 0 0 1-.57-.36c-.07-.15 0-.22-.05-.37a.72.72 0 0 0 1.04-.58zM5.44 69.92a.53.53 0 0 0 .42-.05c.3-.3-.34-1.3-.68-1a1 1 0 0 0 .26 1.05zM104.85 68.98a2.26 2.26 0 0 0-.37.26 3.17 3.17 0 0 0-.94.42c-.09.13 0 .42-.1.68a1 1 0 0 1-.26.26.43.43 0 0 0 .11.68 2.78 2.78 0 0 1 .62-.26c.31.18-.11 1.92.52 1.82a1 1 0 0 0 .31-.68 1.92 1.92 0 0 0 .16-1.46 1 1 0 0 1-.31-.52c0-.26.69-.61.63-1-.04-.2-.2-.22-.37-.2zM100.47 69.14a.18.18 0 0 0-.16.05.79.79 0 0 0-.36.16.89.89 0 0 0-.21.89c.41.4 1.18-.86.73-1.1z"></path><path d="M4.51 71.28c.23-.05.24.12.42.26a2.38 2.38 0 0 1 .42.31 1 1 0 0 1 0 .26.45.45 0 0 0 .78.37.93.93 0 0 0-.16-.68c-.15-.14-.45-.1-.52-.21a4.42 4.42 0 0 0 0-.47 3.68 3.68 0 0 0-.52-.89c-.27-.39-.56-.93-1-.73a.41.41 0 0 0-.26.1 2.33 2.33 0 0 0 .1.68 4 4 0 0 1-.16.89c0 .39.12.79.05 1.15a1 1 0 0 0-.16.42 3.06 3.06 0 0 0 .47 1 .63.63 0 0 0 .42-.26 2.52 2.52 0 0 0-.21-.83 1.54 1.54 0 0 1 .33-1.37zM105.42 69.87c.2 0 .26-.29.16-.42s-.26.29-.16.42zM91.14 69.47a.2.2 0 0 0-.16.05c-.53.22.12.76.36.52a.38.38 0 0 0-.2-.57zM7.37 71.12a.78.78 0 0 0-.68-1.15c-.92.23.08 1.65.68 1.15zM95 70.02a.45.45 0 0 0-.42.42c-.09.79 1.14 1 1.2.26a.67.67 0 0 0-.78-.68zM97.71 70.86c.39.06.76-1 .05-.83a.48.48 0 0 0-.31.21.52.52 0 0 0 .26.62z"></path><path d="M98.44 70.29c-.43.14-.1.56.16.47s.05-.54-.16-.47zM100.26 72.21c.17-.42.68-1.21.16-1.15s-.27.54-.42.78a4.77 4.77 0 0 1-.47.42.53.53 0 0 0 .1.68c.41.14.44-.26.63-.73zM10.4 71.69c.14-.33-.44-.62-.63-.57-.91.23.38 1.13.63.57zM7.42 72.32c.19-.19-.21-1.14-.57-.94s.25 1.27.57.94zM99.22 71.38c-.42-.34-.71.45-.62.94-.65-.33-1.11.91-.73 1.09s.7-.57.83-.89c.54.36.76-.95.52-1.14zM11.18 72.94c.68 0 .64-1.57-.31-1.3a.38.38 0 0 0-.37.26 1 1 0 0 0 .68 1.04zM103.03 72.47c.27-.28.16-.78-.16-.68s0 .82-.05.89a3 3 0 0 1-.42.26 4.84 4.84 0 0 0-.26.89 2.94 2.94 0 0 1-.94.63 1.27 1.27 0 0 0-.1.26 1.05 1.05 0 0 1-.63.57 1 1 0 0 0-.57-.05.72.72 0 0 0-.21.89.87.87 0 0 0 .73-.16c.22 0 .48.08.62.05a1.17 1.17 0 0 0 .73-.57 1.3 1.3 0 0 1 .21-.68c.39-.17.26.4.68.26s.14-.82.37-1.36c.14-.33.63-.52.47-.94a.67.67 0 0 0-.47-.26zM9.09 74.4a.29.29 0 0 0 .26.05c.31-.17-.15-.87-.42-1.2s-.31-.36-.42-.52-.41-.77-.68-.62c-.09.05-.07 0-.1.1-.21.61.68 1.22 1 1.67a1 1 0 0 0 .36.52zM13.99 72.32c-.22.16.06.85.36.78s.03-1.07-.36-.78zM6.23 74.66c1 .11.08-.84-.1-1.1-.3-.42-.35-.67-.83-.57a1.14 1.14 0 0 0-.78.89c0 .35.26.59.31 1.15 0 .31-.1.51-.05.83a2.51 2.51 0 0 0 .52 1 1.11 1.11 0 0 0 .16-.78 5.18 5.18 0 0 0 .37-.52c0-.28-.35-.8-.1-1a.66.66 0 0 1 .5.1zM14.36 73.99c.31-.31-.33-.83-.57-.83v.05c-.58.26.28 1.06.57.78zM99.64 74.92c.52-.24.21-1.44-.52-1.2s-.01 1.45.52 1.2zM7.77 75.18c.4-.18-.19-1.55-.68-1.3-.63.33.29 1.49.68 1.3zM92.91 74.35a.44.44 0 0 0-.31.57.46.46 0 0 0 .52.21c.39-.14.23-.89-.21-.78zM97.77 75.47c.37.16 1.15-1 .31-.83-.31.02-.69.65-.31.83zM93.77 75.76c.25.11 1-.63.63-1-.08-.08-.15 0-.26 0-.37.04-.75.84-.37 1zM90.36 75.86c.61.49 1.36-1.2.31-1a.61.61 0 0 0-.31 1zM102.66 75.39a1.46 1.46 0 0 0-.16.47.54.54 0 0 1-.21.42 2.82 2.82 0 0 1-.42 0c-.35.09-.76.7-.57.89s.67-.27.83-.05a4.17 4.17 0 0 1-.1.57c0 .23-.17.37 0 .52a1.86 1.86 0 0 0 .52-.94c0-.1.18-.22.21-.31a2.4 2.4 0 0 1 0-.31 4 4 0 0 1 .31-.37c.18-.3.21-.62.36-.89a1 1 0 0 0-.77 0zM8.31 78.94c.11.68.63 1.23.94 1s-.05-.56-.1-1 .06-.76 0-.94c-.14-.39-.69-.39-.52-.83s.45-.08.73-.21a5.1 5.1 0 0 1 .63-.63.464.464 0 1 0-.26-.89c-.37.13-.18.5-.52.68a1.55 1.55 0 0 1-.68.05.81.81 0 0 0-.63-.05c-.34.27.33 1 .36 1.15.09.34-.05 1.07.05 1.67zM7.32 77.53c.52-.17-.13-1.89-.68-1.67-.8.33.39 1.76.68 1.67zM97.29 76.47c-.06-.4-.34-.43-.73-.37a.85.85 0 0 0-.47.16 1 1 0 0 0 .1.94.79.79 0 0 0 1.1-.73zM18.06 76.7c-.67.42 1 1.57.63.37a.45.45 0 0 0-.63-.37zM97.71 76.75a1 1 0 0 0-.52.63c-.09.29-.11.56.05.63.38.15 1.36-1.43.47-1.26zM13.16 77.95c.25-.25-.44-1.23-.83-1a.22.22 0 0 0-.16.1c-.11.42.73 1.15.99.9zM101.3 78.21a1.47 1.47 0 0 1-.89.05 1.35 1.35 0 0 1 .52-.62.85.85 0 0 0 .16-.52c-.12-.2-.46-.09-.63.05s-.16.69-.36.83a.67.67 0 0 0-.16-.47 1.33 1.33 0 0 0-.83.47c-.2.26-.43 1-.16 1.15a1.6 1.6 0 0 0 .52-.26c0 .7.7 0 1.09.1s.19.64.68.89a10.37 10.37 0 0 0 .57-1.15.62.62 0 0 0-.51-.52z"></path><path d="M98.44 77.17a.61.61 0 0 0-.42.68.43.43 0 0 0 .37.26c.61.06.89-1.17.05-.94zM11.59 78.42c.71.2.49-1.25-.05-1a.68.68 0 0 0 .05 1zM17.02 78.42c.46-.17 0-1.31-.57-1s.18 1.14.57 1zM8.68 80.92a1.53 1.53 0 0 0-.57-.94 1.3 1.3 0 0 1-.78-.57 3.5 3.5 0 0 1 .21-.68c0-.42-.47-1-.73-.68s-.09.75-.63.68c.23.5.64 1.2.94 1.72.06.11.28.61.31.63a1.12 1.12 0 0 0 1.25-.16zM11.07 78.99c.48-.08.09-1.15-.37-.89s.15.93.37.89zM93.28 78.63c.22-.44.07-.55-.31-.47s-.65.74-.31.89a.66.66 0 0 0 .62-.42zM95.31 78.31a.5.5 0 0 0-.37.47.35.35 0 0 0 .1.37c.55.25 1.16-1.08.27-.84zM93.85 79.2c0-.23-.1-.23-.36-.21a.8.8 0 0 0-.42.21c-.62.86.92.69.78 0zM96.98 79.72c.31.31.94-.41.63-.73a.37.37 0 0 0-.31 0 .59.59 0 0 0-.26.1.66.66 0 0 0-.06.63zM89.77 79.09c-.34.12-.41.79.05.78s.67-1.03-.05-.78zM18.32 80.61c.26-.26-.23-1-.47-1.15a1.39 1.39 0 0 0-.83-.26.29.29 0 0 0-.21.1 1.33 1.33 0 0 0 .52.89 1.27 1.27 0 0 0 .99.42zM15.35 80.14c.27-.27-.3-1-.57-.83-.55.32.29 1.11.57.83zM10.4 79.98c.24-.24-.23-.7-.47-.52-.41.3.23.75.47.52zM13.21 80.97a.71.71 0 0 0 .21-.57c0-.11.11-.17.16-.26.21-.43 0-.74-.47-.62a3.48 3.48 0 0 0-.57.47 1.6 1.6 0 0 1-.05.16.82.82 0 0 0 .72.82zM99.9 79.82a.59.59 0 0 0-.21.05c-.2.16-.37 1.05 0 1.15a1.41 1.41 0 0 0 .73-.89c-.01-.34-.25-.38-.52-.31zM86.08 80.19c-.3 0-.92 1-.63 1.25a.64.64 0 0 0 .57-.16.68.68 0 0 0 .05-.16s.13-.06.16-.1c.32-.49.29-.9-.15-.83zM95.62 81.96a2.75 2.75 0 0 0 .16-.78 1.37 1.37 0 0 0 .37-.78c-.08-.36-.47-.14-.78-.16a1.09 1.09 0 0 0-.52-.05c-.11 0-.38.13-.31.37a1.29 1.29 0 0 0 .57.21c.35.47-.63 1.16-.1 1.41a1.12 1.12 0 0 0 .61-.22zM96.87 81.7a.84.84 0 0 0 .47-.1 1.45 1.45 0 0 0 .36-.83.69.69 0 0 0-.36-.57h-.1c-.28.05-.8 1.27-.37 1.5zM92.18 80.29a.21.21 0 0 0-.16.11c-.31.53.69.5.42-.05-.05-.12-.15-.09-.26-.06zM9.51 81.75c.71 0 .75-1.66-.21-1.41-.71.2-.41 1.43.21 1.41zM93.85 80.47a.48.48 0 0 0-.42.42.69.69 0 0 0 .21.47c.61.28.96-1.01.21-.89zM12.12 82.12c.13-.55-.36-1.57-.83-1.41a.93.93 0 0 0-.21 1c.16.81.88 1.05 1.04.41zM98.07 81.75a.67.67 0 0 0 .57.1c.45-.21.17-.77.05-1a.35.35 0 0 0-.47-.16c-.71.17-.38.9-.15 1.06zM91.4 80.87a.38.38 0 0 0-.31 0 1.8 1.8 0 0 0-.63.47 2.62 2.62 0 0 0-.73.31c-.26.32-.12.72.21.73s.26-.35.73-.57a2.62 2.62 0 0 0 .78-.26.57.57 0 0 0-.05-.68zM17.28 81.13c-.51.31.31 1 .57.78s-.08-1.07-.57-.78z"></path><path d="M99.32 81.18a1.28 1.28 0 0 0-.47.78 3.85 3.85 0 0 0-.68.52.67.67 0 0 0-.16.73 1 1 0 0 0 .83-.36 5.7 5.7 0 0 0 .83-.52c.36-.44.1-1.27-.35-1.15zM97.19 83.53c0-.43.51-1.36.16-1.72-.07-.07-.11 0-.16 0a.12.12 0 0 0-.1.05 3.82 3.82 0 0 0-.83 1.51 4.91 4.91 0 0 1 .16 1.09 4.19 4.19 0 0 1-.26.47c-.2.42-.5 1.36-1 1.25s-.22-.65-.26-1a1.15 1.15 0 0 0-1.15-.78.92.92 0 0 0-.63.89 1 1 0 0 0 .57.37 1.22 1.22 0 0 1 .52 1.46c-.12.47-.58.58-.63 1a1 1 0 0 0 .31.83c.52.18 1.27-.86 1.25-1.2a2.32 2.32 0 0 1-.26-.62.62.62 0 0 1 .37-.26s.28-.22.37-.26a1.53 1.53 0 0 0 1-.68 3.76 3.76 0 0 1 0-.78 6.54 6.54 0 0 0 .57-.78c.04-.19-.03-.56 0-.84zM14.2 88.47a1.55 1.55 0 0 0-.31-.21.61.61 0 0 1-.21-.31c0-.16.19-.5.16-.73-.07-.5-.73-.55-.83-1.15 0-.26.09-.47.05-.68a4.83 4.83 0 0 0-.47-.73 2.19 2.19 0 0 0-.16-.83.78.78 0 0 0-.68-.21 1.07 1.07 0 0 0-.26.47 8.1 8.1 0 0 1-.68-1c-.19-.35-.49-1-.78-.94s.11.78.05 1a1.12 1.12 0 0 0-.47-.31 2.75 2.75 0 0 1-.42-.05c-.2-.09-.8-1-1.09-.73-.14.14.19.39.31.57s.16.41.26.52.23.09.31.16.2.32.31.42a1.3 1.3 0 0 0 .68.26.71.71 0 0 0 .26-.37 1 1 0 0 1 .26.42 2.07 2.07 0 0 1 .57.78.79.79 0 0 1-.16.63.68.68 0 0 0-.16.31 1.35 1.35 0 0 0 .52 1 4.12 4.12 0 0 0 .52-.31c.63-.11.36.16.47.63l.16.31.26.16a2.52 2.52 0 0 1 .31.1 1 1 0 0 1 .42 1.09 3 3 0 0 0-1.2-1 1.57 1.57 0 0 0 .68 1 3 3 0 0 0 .26.37 1.09 1.09 0 0 1 .31.1 1.62 1.62 0 0 1 .05.31 2.53 2.53 0 0 0 .42.42.71.71 0 0 0 .47.42 1.1 1.1 0 0 0-.1-.63 3.13 3.13 0 0 0-.09-1.26zm-2.5-4.12a.91.91 0 0 1 .31.31c0 .3.22.63.26.94a1.09 1.09 0 0 1-.57-1.24zM15.09 83.53a.63.63 0 0 0 .57-.63.73.73 0 0 0-.42-.78.18.18 0 0 0-.1.05c-.61.09-.97 1.4-.05 1.36zM14.1 83.79s.1-.18.1-.21a.88.88 0 0 0-1-.89.43.43 0 0 0-.26.42.85.85 0 0 0 1.16.68zM92.7 83c0-.19-.1-.3-.42-.21a.55.55 0 0 0-.26.16c-.36.62.75.59.68.05zM12.32 83.58c.28-.09.16-.79-.21-.68v.05a.34.34 0 0 0 .21.63z"></path><path d="M95.05 83.21c-.07-.21-.18-.22-.47-.16a.58.58 0 0 0-.31.16.51.51 0 1 0 .78 0zM93.77 83.21c-.28 0-.64.64-.31.83s.7-.43.63-.68-.18-.16-.32-.15zM16.91 85.35a2.93 2.93 0 0 0-.47-.83 4.47 4.47 0 0 0-.1-.78.76.76 0 0 0-.73-.31c-.38.29.23.69.31 1s0 .48 0 .68a1.37 1.37 0 0 0 .26.47c.35.42.73.31.73-.23zM98.7 83.58a1.55 1.55 0 0 0-.57.42 3.7 3.7 0 0 0-.47.21 2 2 0 0 0-.31.78.73.73 0 0 0-.31.57c.25.45.81-.34.94-.52s.25-.3.37-.47c.28-.42.86-1.1.35-.99zM91.77 83.94a.48.48 0 0 0-.47.47 1 1 0 0 0 .1.26c.56.46 1.14-.81.37-.73zM18.94 85.09c.32-.32-.41-1.08-.73-.89a.22.22 0 0 0-.16.1c-.08.4.64 1.04.89.79zM90.2 84.83c0-.28-.18-.24-.36-.21a.43.43 0 0 0-.36.47c.09.38.79.17.72-.26zM92.34 85.47c.31.17 1.11-1 .26-.83-.3.09-.63.66-.26.83zM87.02 84.72c-.17 0-.55.44-.31.68.39.4 1.06-.86.31-.68zM13.58 85.04c-.09.05-.07 0-.1.1-.12.41.85 1.24 1.09.73s-.66-1.04-.99-.83zM90.57 85.04c-.27.07-.45.61-.1.68s.61-.81.1-.68zM17.69 87.64c.26-.26-.28-.91-.47-1a1.68 1.68 0 0 0-.83-.52.28.28 0 0 0-.16.05c-.21.59 1.14 1.8 1.46 1.47zM21.24 86.13a.41.41 0 0 0-.26.47c0 .55.85.75.94.26s-.24-.92-.68-.73zM15.77 87.7c.54-.14.23-1.09 0-1.25a.54.54 0 0 0-.37-.05c-.96.13-.22 1.45.37 1.3zM87.86 88.53c.31 0 1.16-1.8.47-1.93a.17.17 0 0 0-.1.05 1.1 1.1 0 0 0-.68.78.91.91 0 0 0 .31 1.1zM95.83 86.81a.51.51 0 0 0-.36.16.71.71 0 0 0 .36.78 1.1 1.1 0 0 0 .57-.68l-.1-.21a.44.44 0 0 0-.47-.05zM19.67 88.16a.62.62 0 0 0 .52.47c.71-.1.22-2.15-.52-1.77-.37.19-.1.55 0 .94.03.11-.02.26 0 .36zM82.77 86.86c-.2.05-.39.46-.16.57.37.19.57-.68.16-.57zM93.49 87.47a2 2 0 0 0-.68-.21c-.28-.18-.08-.43-.52-.31a.31.31 0 0 0-.16.05c-.42.41-.57 1.42.31 1.41.33-.04 1.23-.55 1.05-.94zM84.62 87.64c0-.33-.2-.36-.47-.31a.4.4 0 0 0-.42.42.45.45 0 0 0 .89-.11z"></path><path d="M91.56 87.7c-.08-.25-.24-.24-.47-.21a.77.77 0 0 0-.63.78c.17.55 1.31.01 1.1-.57zM78.84 88.22a.35.35 0 0 0-.1.63c.48.2.84-.91.1-.63zM21.39 91.14c.17-.36-.42-.72-.63-.78a2.7 2.7 0 0 0-.42 0 1.44 1.44 0 0 1-.36-.42 1.53 1.53 0 0 0-.42-.42c-.18-.09-.53 0-.83-.16a2.94 2.94 0 0 1-.63-.52.85.85 0 0 0-.78-.42c-.24.14-.08.49.1.73a7.2 7.2 0 0 0 1.51 1 4.52 4.52 0 0 0 .57.31c.21 0 .52-.06.68 0a1.92 1.92 0 0 1 .47.63c.25.2.65.26.74.05zM15.77 88.53c-.36.27.42 1 .63.89.46-.19-.28-1.16-.63-.89zM26.97 89.05c-.19.47.47.88.73.63a.77.77 0 0 0-.1-.73.38.38 0 0 0-.36-.05.33.33 0 0 0-.27.15zM80.25 89.1a.57.57 0 0 0-.42.57s.09.2.1.21c.62.5 1.19-.99.32-.78zM85.09 90.3a1.77 1.77 0 0 1-.1.42.86.86 0 0 0 .21.42c.32.24 1.23 0 1-.68-.1-.35-.53-.37-.63-.68a1.06 1.06 0 0 0-.05-.63.45.45 0 0 0-.42 0 .5.5 0 0 0-.26.83.65.65 0 0 1 .25.32zM15.45 89.36c-1 .28 0 1.89.57 1.62a1.32 1.32 0 0 0 .31-1.09.77.77 0 0 0-.88-.53zM90.46 89.73c-.05-.42-.49-.34-.78-.31a2.69 2.69 0 0 0-1.25.52c-.21.15-1 .76-.68 1s.68-.32.94-.42c.54-.15 1.86-.13 1.77-.79zM94.06 89.47c-.64 0-.55.71-.94.89a1.51 1.51 0 0 1-.47 0 1.74 1.74 0 0 0-.57.21c-.18.13-.11.29-.36.52s-.53 0-.42.36.44-.1.57-.1a1.49 1.49 0 0 1 .21.1c.55.18 1-.47 1.36-.89s1.16-1.01.62-1.09zM27.7 91.03c.15-.08.14-.27 0-.47a2.05 2.05 0 0 0-.47-.26c-.31-.29-.23-.74-.68-.57a.33.33 0 0 0-.26.31 1.31 1.31 0 0 0 .21.47c.11.09.4 0 .63.1s.26.58.57.42z"></path><path d="M91.4 90.72c.39.39 1.17-.79.52-.94a.15.15 0 0 0-.1.05c-.23.03-.69.64-.42.89zM82.07 90.09a.56.56 0 0 0-.31.16.75.75 0 0 0-.05.68c.38.38 1.52-1.12.36-.84zM17.59 90.14c-.7.29.2 1.28.63.94s-.23-1.1-.63-.94zM31.98 90.14c-.48.2-.1.56.1.63.95.33.61-.92-.1-.63zM24.42 91.19c.33-.33-.63-1-.83-.89-.48.28.5 1.17.83.89zM86.19 91.87a.63.63 0 0 0 .63-.57c0-.3-.09-.4-.47-.31a.61.61 0 0 0-.31.16.48.48 0 0 0 .15.72zM20.35 92.07a2.4 2.4 0 0 0-.26-.57c-.21-.37-.28-.44-.57-.36a.69.69 0 0 0-.31 1 1.5 1.5 0 0 0 .31.21 1.12 1.12 0 0 1 .26.26 2.51 2.51 0 0 0 .16.47l.42.47c.25.17.54.21.63 0a3.37 3.37 0 0 0-.63-1 4.2 4.2 0 0 1-.01-.48zM90.51 91.29a.36.36 0 0 0-.26.05 1.42 1.42 0 0 0-.68.47.86.86 0 0 0-.52.63 1.1 1.1 0 0 0 1.3.73c.21-.12.57-1.7.16-1.88zM22.77 92.75c.34.21.69 0 .68-.26a.48.48 0 0 0-.52-.42c-.62.08-.41.54-.16.68zM83.58 92.86a.55.55 0 0 0 .47-.36c.16-.37 0-.46-.26-.42a.49.49 0 0 0-.21.05c-.05.04-.36.64 0 .73zM19.77 94.47c.25.12 1 .55 1.2.16a.87.87 0 0 0-.31-.68c-.3-.23-1.58-.17-1.62-.62s.37-.14.42-.52-.83-.76-1-.57a1.39 1.39 0 0 0-.1.52 1 1 0 0 1-1.2.21.8.8 0 0 0 .36.52 3 3 0 0 0 .57.47 3 3 0 0 1 .63-.05 5.49 5.49 0 0 1 .52.31c.11.09.35.19.53.25zM25.25 92.91a.75.75 0 0 0-.42-.57.74.74 0 0 0-.42-.1c-.64.28.63 1.23.84.67zM88.59 92.47c-.08-.22-.19-.17-.42-.16a.62.62 0 0 0-.63.68c.17.48 1.23-.09 1.05-.52zM76.28 92.39a.72.72 0 0 0-.42.16.67.67 0 0 0-.05.73.73.73 0 0 0 .94-.73c-.08-.23-.18-.2-.47-.16zM78.42 92.86c.08.49 1.08.22.94-.26-.08-.26-.26-.21-.52-.16s-.45.21-.42.42zM73.77 93.12c.1.32.84.2.83-.21 0-.25-.1-.36-.47-.26a.41.41 0 0 0-.36.47zM85.41 94.47a6.64 6.64 0 0 0 .52-.57 3.74 3.74 0 0 0 1-.31 1.76 1.76 0 0 0 .16-.26.35.35 0 0 0-.37-.52 1.51 1.51 0 0 0-.47.05c-.29.09-1.51.94-1.25 1.46a.49.49 0 0 0 .41.15zM22.28 94.37a.88.88 0 0 0 .21-1.15 1.25 1.25 0 0 0-.68-.16c-1.45.11-.04 1.53.47 1.31zM27.08 93.79c.12-.41-.56-.6-.73-.52-.68.3.58 1.03.73.52zM89.99 93.38a2.73 2.73 0 0 0-.47.52.79.79 0 0 0-.26.63 1.69 1.69 0 0 0 .68-.52 1.61 1.61 0 0 0 .62-.63c-.08-.2-.5-.04-.57 0zM79.41 94.73a.81.81 0 0 0 1.1-.21 1.87 1.87 0 0 0-.16-.78 1.28 1.28 0 0 0-1-.05.4.4 0 0 0-.31.37 1.16 1.16 0 0 0 .37.67zM87.07 95.62a.84.84 0 0 0-.89.05c-.12-.68-.9-.05-1.2 0-.86.15-.76-.43-.78-1a3.18 3.18 0 0 0-.52-.05c.57-.79-.65-.91-1.3-.68-.28.1-1.17.78-1 1.09s.7-.16 1-.21a2.26 2.26 0 0 1 .68.1c.15 0 .24-.13.37 0a.73.73 0 0 1-.42.31 1.05 1.05 0 0 0-.21.63c.21.34.48-.15.89.05s0 .5.31.62a1.83 1.83 0 0 0 .78-.16 5.31 5.31 0 0 0 1.25-.47 1.24 1.24 0 0 0 .37 1l.1-.1a2.18 2.18 0 0 0 .89-.78 1.65 1.65 0 0 0-.32-.4zM88.17 94.06a.81.81 0 0 0-.73.68 1.37 1.37 0 0 0 .16.36c.55.39 1.15-.58 1-.89a.38.38 0 0 0-.43-.15zM23.58 94.94a.45.45 0 0 0-.47-.73c-.59.26.18.96.47.73zM41.2 94.21c-.8.27.06 1.1.47.89a.65.65 0 0 0 .05-.78.52.52 0 0 0-.52-.11zM67.68 94.78c.19-.4-.22-.54-.47-.47-.82.24.24.97.47.47zM21.34 94.58a.22.22 0 0 0-.16.1c-.08.38.67 1.1.89.89s-.3-1.22-.73-.99zM19.05 94.73c0 .31.56.69.73.52s-.33-.7-.73-.52zM70.13 94.94c0-.19-.08-.22-.42-.16s-.41.06-.36.31.84.21.78-.15zM73.52 94.89c0-.2-.18-.2-.37-.1-.5.25.47.55.37.1zM70.55 95.2c.07.46 1 .26.89-.21 0-.15-.14-.21-.47-.16s-.47.06-.42.37zM77.59 95.25c0-.24-.15-.26-.47-.21a.86.86 0 0 0-.47.26c-.62.93 1.05.53.94-.05zM26.45 96.3c.27 0 .79.38.94.1s-.66-.46-1-.62-.67-.67-1.09-.52-.26.83 0 1a2.86 2.86 0 0 0 1.15.04zM80.98 95.57c-.43 0-1.49.35-1.15.78a2.16 2.16 0 0 0 1.2.05c.34 0 .73.18.83-.16a1 1 0 0 0-.16-.52 1.43 1.43 0 0 0-.72-.15zM24.16 96.71a2.56 2.56 0 0 0-1.2-.26 1.71 1.71 0 0 1-.68-.47.92.92 0 0 0-1-.26 1.58 1.58 0 0 1-.47.05 1.11 1.11 0 0 0-.68-.16 1.38 1.38 0 0 0 .78.73 2.18 2.18 0 0 0 .78.57 6.48 6.48 0 0 1 .78-.05 4.78 4.78 0 0 1 .42.26l.47.26a1.68 1.68 0 0 0 .94.47c.33-.14.08-.94-.14-1.14zM74.09 96.66c.76 0 .67-1.21-.05-1a.53.53 0 0 0 .05 1zM28.43 96.82c.05.25-.17.5-.1.73a.77.77 0 0 0 .73.42c.39-.18-.19-.8-.26-1.25a1.87 1.87 0 0 0-.05-.84.52.52 0 0 0-.52-.05.34.34 0 0 0-.26.1c-.2.45.4.61.46.89zM76.08 97.08a1 1 0 0 0 .52-.78.66.66 0 0 0-.73-.47c-.56.11-.28.34-.42.89-.06.22-.45.49-.21.73s.65-.21.84-.37zM30.52 97.29a.71.71 0 0 0 .89-.78.87.87 0 0 0-.94-.31.51.51 0 0 0-.26.47.48.48 0 0 0 .31.62zM48.92 96.87a.374.374 0 1 0-.31-.68.43.43 0 0 0-.26.16.51.51 0 0 0 .57.52zM63.77 96.47c-.23 0-.54.13-.47.42s1 .13.89-.26c-.1-.16-.17-.16-.42-.16zM82.17 98.07a.83.83 0 0 0 .36-.89.46.46 0 0 0-.63-.37c-.81.19-.59 1.54.27 1.26zM36.25 97.81c.37-.53-.39-1-.63-.94a.51.51 0 0 0-.57.42.76.76 0 0 0 1.2.52zM84.21 96.87c-.32.07-.86.5-.68.83.28.52 1.59-.1 1.41-.62a.73.73 0 0 0-.73-.21zM66.77 97.47c0 .36.72.14.83 0a.6.6 0 0 0 .05-.57.53.53 0 0 0-.47 0 .5.5 0 0 0-.41.57zM78.77 98.69c.18 0 .43.09.68.05a1.25 1.25 0 0 0 .42-.21 1 1 0 0 0 .21-.62c-.21-.42-.85.14-1.3.05a3 3 0 0 1-.31-.21c-.14-.08-.37-.12-.42-.16a2.39 2.39 0 0 0-.42-.52.48.48 0 0 0-.63.52.59.59 0 0 0 .42.37c.33.24-.06.58.21.89a1.2 1.2 0 0 0 .57.16c-.43.28-.66 1.1.21.78-.38.68.89.63 1 .36a.86.86 0 0 0-.1-.31 1 1 0 0 0-.73-.16.43.43 0 0 0-.16-.73 1.4 1.4 0 0 1 .35-.26zM25.67 97.7c.07-.36-.5-.58-.73-.47-.68.33.61 1.06.73.47zM71.54 97.23a.53.53 0 0 0-.47.57c.16.47 1.11.12 1-.36-.05-.17-.17-.28-.53-.21zM42.51 98.22c.67-.16-.17-.79-.52-.63-.58.29.12.73.52.63zM55.77 98.02a.38.38 0 0 0-.57-.31c-.5.3.57.92.57.31zM27.13 98.69c-.19-.31-.18-.91-.47-.83a.9.9 0 0 0-.31.52 2.35 2.35 0 0 1 .1.47 1.37 1.37 0 0 0-.1.36 1.55 1.55 0 0 0 .73.31c.14.06.47.42.68.21s-.54-.88-.63-1.04zM48.08 98.12c-.08-.27-.36-.23-.63-.16s-.44.16-.36.42 1.11.17.99-.26zM61.77 98.12c0-.16-.17-.15-.37-.16a.53.53 0 0 0-.63.42c.06.61 1.17.21 1-.26zM32.08 97.96a.2.2 0 0 0-.16.05c-.78.19 0 1 .36.63a.48.48 0 0 0-.2-.68zM74.51 99.47c.21-.17-.13-.55-.1-.68a.47.47 0 0 1 .21-.16c.3-.44-.25-.46-.47-.42a.59.59 0 0 0-.52.47 1 1 0 0 0 .16.37 2 2 0 0 0 0 .36.57.57 0 0 0 .72.06zM26.24 99.11s-.78-.67-.89-.73a.85.85 0 0 0-.47-.1.55.55 0 0 0-.57.47 3.29 3.29 0 0 0 .78.57 1.19 1.19 0 0 0 1.15-.21z"></path><path d="M56.37 98.33a.76.76 0 0 0-.37-.05c-.26 0-.41.08-.42.31-.01.65 1.27.29.79-.26zM83.48 98.38c-.16 0-.33.12-.52.11s-.31-.11-.42-.11a2.4 2.4 0 0 1-.83.11 2.08 2.08 0 0 0-.62-.26 1 1 0 0 0-.89.78c.13.37.79.08 1 .05a4.21 4.21 0 0 1 .94.1 1.37 1.37 0 0 1 .47-.05.6.6 0 0 0 .21.26c.09-.22 1.06-.5 1-.78a.67.67 0 0 0-.34-.21zM29.68 98.85a2.94 2.94 0 0 0-.16-.37.86.86 0 0 0-.57-.11c-1.15.07-.77 1.1-.05 1.1a.84.84 0 0 0 .78-.62zM36.2 98.47c-.49.2.05.54.31.47.48-.11-.05-.56-.31-.47zM55.28 98.64a.49.49 0 0 0-.63-.16.51.51 0 0 0-.47.21c-.19.36.2.64.63.57a.54.54 0 0 0 .47-.62zM65.39 99.27c.57.12 1.23-.85.37-.78-.42-.02-.91.66-.37.78zM60.33 98.8a.48.48 0 0 0-.57-.21c-.35.1-.39.24-.36.42.05.46 1.11.46.93-.21zM71.18 98.85c-.07-.16-.17-.11-.42-.1s-.82.25-.73.57c.14.51 1.32-.08 1.15-.47zM33.77 99.47a1 1 0 0 0-1.15-.62c-.48.31.94 1.22 1.15.62zM76.77 99.63c0-.39-.25-.46-.57-.36a.51.51 0 0 0-.37.63c.16.34.94.1.94-.27zM39.27 100.15a.52.52 0 0 0 .21-.57.61.61 0 0 0-.52-.26c-.81.15-.08.99.31.83zM32.13 99.84c0-.37-.59-.39-.68-.37-.27.08-.3.06-.31.26-.03.44.97.62.99.11zM36.93 100.36c.22-.37-.6-.85-.83-.88a.3.3 0 0 0-.21.05c-.64.31.75 1.32 1.04.83zM66.22 100.1c.34-.42-.2-.66-.52-.57s-.43.13-.36.42a.68.68 0 0 0 .88.15zM75.29 99.74c-.06-.15-.17-.17-.42-.16a.75.75 0 0 0-.47.21c-.78.86 1.14.62.89-.05zM68.77 100.83a1.09 1.09 0 0 0-.16-1.15.63.63 0 0 0-.52-.05.86.86 0 0 0-.52 1 .88.88 0 0 0 1.2.2zM26.5 99.74a.14.14 0 0 0-.1.05c-.14.05-.22 0-.21.16a1 1 0 0 0 .47.31.63.63 0 0 0 .52.21c.28-.29-.41-.71-.68-.73zM42.35 100.05a1 1 0 0 0-.89-.26.66.66 0 0 0-.68.63c.13.52 1.81.35 1.57-.37zM71.96 101.09a1.07 1.07 0 0 0 .42-.21.9.9 0 0 0 .05-.68c-.12-.39-.22-.44-.63-.36a1.35 1.35 0 0 0-.42.16 1.67 1.67 0 0 0-.21.52.76.76 0 0 0 .79.57zM34.95 100.41c.12-.3-.3-.52-.52-.52v.05c-.76.25.34.92.52.47zM44.64 100.57c.15-.39-.58-.53-.63-.52-.87.22.44 1 .63.52zM79.93 100.05c-.44.1-.64.27-.63.57a.53.53 0 0 0 .52.47 2.34 2.34 0 0 0 .68-.31l.31-.21c.73-.46-.45-.62-.88-.52z"></path><path d="M78.99 100.47c-.26-.16-.7.32-1 .31s-.52-.23-.78-.26a5.44 5.44 0 0 1-.78.05c-.07-.32-.07-.6-.42-.52a4.22 4.22 0 0 0-1.36.63c-.1.1-.13.35-.26.52s-.27.19-.37.31a.48.48 0 0 0-.16.63c.33.35.85 0 1-.37a1.86 1.86 0 0 1 .16-.57.52.52 0 0 1 .57-.16.65.65 0 0 1-.16.63 2 2 0 0 1-.42.37 1.63 1.63 0 0 1-.73.83 4 4 0 0 1-.78-.1 3.45 3.45 0 0 1-.89.1c-.21-.07-.2-.34-.42-.42a4.54 4.54 0 0 0-.83.1 2.18 2.18 0 0 1-.63-.37 1.47 1.47 0 0 0-.73-.31.65.65 0 0 0-.68.47.78.78 0 0 0 .52.37 4.71 4.71 0 0 1 .31.47c.36.32 1.18-.47 1.51-.05a.56.56 0 0 1-.05.37c0 .7.73.24 1.15.21.22 0 .58.07.73.05s.42-.22.68-.26.39.08.57.05a3.82 3.82 0 0 0 .94-.47s-.07-.35-.05-.42a3.54 3.54 0 0 0 .37-.52.88.88 0 0 1 .21-.57 2.39 2.39 0 0 1 .57 0c.27 0 .53-.25.68-.26a1.14 1.14 0 0 1 .63.1 1.26 1.26 0 0 0 .31.42 1.4 1.4 0 0 0 .47-.21c.11-.06.23-.15.42-.26a1.87 1.87 0 0 1-.16-.36.66.66 0 0 0-.14-.53zM49.77 100.2c-.8.33.44.92.68.63s-.34-.75-.68-.63zM56.95 100.41c-.05-.31-.24-.27-.52-.21a.42.42 0 0 0-.42.42c.08.45 1.01.25.94-.21zM31.87 101.2a1.21 1.21 0 0 0-.21-.78 2.87 2.87 0 0 0-1.56-.16c-.45.25 0 .61.36.78s1.22.51 1.41.16zM52.83 100.83c.1.35.9.21.89-.16a.32.32 0 0 0-.42-.26c-.39.06-.53.2-.47.42zM62.21 100.62c-.07-.27-.51-.19-.63-.16a.7.7 0 0 0-.26.1c-.55.57 1.05.66.89.06zM28.77 100.68a.43.43 0 0 0-.26.63 2 2 0 0 0 .57.31.85.85 0 0 0 .57.21.6.6 0 0 0-.1-.57c-.13-.42-.38-.72-.78-.58zM47.67 101.47a3.44 3.44 0 0 0 .57.05.63.63 0 0 0 .47-.73.46.46 0 0 0-.52-.16 2.05 2.05 0 0 0-.94.26c-.28.1-.6.13-.57.36s.48.22.99.22z"></path><path d="M74.2 101.04c.09-.38-.46-.4-.63-.36s-.55.14-.47.42 1.05.16 1.1-.06zM59.5 100.78c-.2 0-.43.12-.36.36s.72.34.78-.05c.03-.24-.07-.38-.42-.31zM45.63 101.25a.46.46 0 0 0-.68-.21c-.8.43.74.82.68.21zM55.28 101.4c0-.24-.25-.27-.47-.16-.53.29.52.68.47.16zM40.26 101.72c0-.48-1.14-.24-1.77-.31a1.18 1.18 0 0 0-.47-.05c-.19.08-.23 0-.26.21-.13.76 2.56.84 2.5.15zM34.53 102.08a4.58 4.58 0 0 1 .57.26c1 .19.55-.71.1-.89a5.38 5.38 0 0 0-1.82 0 .34.34 0 0 0-.26.1.49.49 0 0 0 .42.57 4.93 4.93 0 0 0 .99-.04zM65.7 101.72c-.13-.32-1 0-1.36-.05a1.86 1.86 0 0 0-1.09-.21c-.18.08-.29.08-.26.36s.89.53 1.56.52c.41 0 1.33-.2 1.15-.62zM37.29 102.24a.63.63 0 0 0-.1-.42 1 1 0 0 0-.83-.26c-.9.38.7 1.31.93.68zM60.28 102.47c.7.24.75-.64.47-.83a.38.38 0 0 0-.31 0c-.77.03-.53.68-.16.83zM42.71 102.13c.09-.38-.34-.44-.52-.42-.38 0-.51.23-.47.42.05.34.93.25.99 0zM46.26 102.29c.15-.36-.42-.62-.63-.63v.05c-.63.29.43 1.05.63.58zM32.6 102.47c.24-.5-.56-.66-.68-.63-1.03.29.45 1.15.68.63zM51.84 101.98a.49.49 0 0 0-.31.26.89.89 0 0 0 .16.52.8.8 0 0 0 .94-.05c.34-.46-.35-.9-.79-.73zM30.26 102.08a.7.7 0 0 0 .63.37c.23-.38-.4-.6-.63-.37zM44.7 103.47a1.21 1.21 0 0 0-.47-.78c-.25-.39-.2-.67-.73-.52a.53.53 0 0 0-.42.57.84.84 0 0 0 .68.63c.28.1.82.34.94.1zM58.4 102.19a.53.53 0 0 0-.47.26c-.23.75.9.71.94.16a.36.36 0 0 0-.47-.42zM66.02 102.66c.08.57 1.18.22 1-.31 0-.13-.15-.17-.42-.16s-.63.11-.58.47zM68.57 103.8a.52.52 0 0 0 .57-.21c.15-.44-.56-.52-.68-.68a1.38 1.38 0 0 1-.05-.31c-.09-.22-.14-.17-.31-.16a1 1 0 0 0-.42.31l-.47.31a1 1 0 0 0-.47.31.42.42 0 0 0 0 .57c.26.2.74-.34.94-.37a2.52 2.52 0 0 1 .89.23zM60.65 103.13c.37.17.46-.59.1-.47-.19.06-.32.37-.1.47zM14.89 87.97c-.19.06-.32.37-.1.47.37.17.46-.59.1-.47zM32.45 102.76c-.12 0-.42 0-.42.21a.32.32 0 0 0 .26.16 3.38 3.38 0 0 0 1 .42.43.43 0 0 0 .05-.52 1.18 1.18 0 0 0-.89-.27zM36.2 104.22a2.18 2.18 0 0 0-.43-.75c-.13-.09-.45-.08-.57-.16a2.66 2.66 0 0 0-.47-.47c-.39-.18-.93-.14-.94.21a1.23 1.23 0 0 0 .83.47 6 6 0 0 1 .31.57 2 2 0 0 0 .78.42 1.69 1.69 0 0 0 .94.21 1.75 1.75 0 0 0-.45-.5zM37.92 103.59a.83.83 0 0 0-.68-.47 1.67 1.67 0 0 0-1-.26.34.34 0 0 0-.26.1 1 1 0 0 0 .16.47 2.09 2.09 0 0 0 1.41.52.42.42 0 0 0 .37-.36zM50.53 103.39c0-.4-.64-.37-.68-.37-1.52.19.61 1.15.68.37zM38.96 104.38c.31 0 .57-.32.89-.37a2.39 2.39 0 0 1 .68.1 2.17 2.17 0 0 0 .31.1c.43 0 .21-.63 0-.83a1.27 1.27 0 0 0-.73-.26c-.43 0-.49.23-.89.26a2.71 2.71 0 0 0-.78-.05.54.54 0 0 0-.36.83 1.07 1.07 0 0 0 .88.22zM54.96 103.28a.75.75 0 0 0-.83-.1c-.94.29 0 1 .52.89a.67.67 0 0 0 .31-.79zM43.6 103.54c0-.29-.65-.32-.68-.31-.29.07-.41.16-.36.37s1.05.36 1.04-.06zM62.31 103.47a.57.57 0 0 0-.68-.21c-.25.07-.38.09-.37.31.04.44 1.16.37 1.05-.1zM57.05 103.59a.45.45 0 0 0-.57-.26c-.26.06-.46.12-.42.42s1.07.4.99-.16zM64.56 103.59a.47.47 0 0 0-.52-.16 1.74 1.74 0 0 0-.62.21.93.93 0 0 0 0 1 1.09 1.09 0 0 0 .42.21c.8.28.44-.28.52-.78a.83.83 0 0 0 .2-.48zM33.59 103.65a.38.38 0 0 0 .47.16c.07-.48-.51-.42-.47-.16zM54.96 107.24a1.53 1.53 0 0 0-.52-.36 2.42 2.42 0 0 1-.68 0 .67.67 0 0 1-.21-.52 1.49 1.49 0 0 0-.21-.52c-.33-.33-.95-.29-1 .16s.64.39.57 1a3.31 3.31 0 0 1-.83-.1 4.82 4.82 0 0 1-1.46-.16 4.72 4.72 0 0 1-.42-.73c-.39-.3-1.64 0-1.51-.68a1.17 1.17 0 0 1 .47-.31 5.42 5.42 0 0 0-.42-1.36.78.78 0 0 0-.57-.26c-.65.13-.07.75-.1 1.15a1.08 1.08 0 0 1-.52.68c-.14 0-.32-.08-.52-.05a5.4 5.4 0 0 0-.73.42 3.84 3.84 0 0 0-.89 0 .9.9 0 0 0-.31.89.62.62 0 0 0 .68.42 1.23 1.23 0 0 0 .78-.62 1.09 1.09 0 0 1 .47-.42 4.61 4.61 0 0 1 .89 0 .58.58 0 0 1 .47.31 1.1 1.1 0 0 0 .26.26c.13.09.25 0 .42.1s.23.42.42.52a6.44 6.44 0 0 0 1 .1c.25.07.35.4.57.47a3.6 3.6 0 0 0 1.3 0 4.75 4.75 0 0 0 .52-.31c.68-.12.62.26 1.09.37a2.89 2.89 0 0 0 .78 0 1 1 0 0 0 .68-.1.81.81 0 0 0-.47-.35zM70.71 104.47c-.14-.14-.09-.4-.21-.52a1.38 1.38 0 0 0-.78-.21.89.89 0 0 0-.62.73 2.77 2.77 0 0 1-.26.31 1.31 1.31 0 0 1-1 .26 8.86 8.86 0 0 0-1.09.57 3 3 0 0 0-1.2.21 1.11 1.11 0 0 0-.73-.63.88.88 0 0 0-.78.47 1.14 1.14 0 0 0 .57.68 1 1 0 0 0 .21.31 2.26 2.26 0 0 0 .94-.31c.06 0 .19.06.26.05a6.49 6.49 0 0 0 1.46-.42 4.48 4.48 0 0 1 .47-.16 6.51 6.51 0 0 0 1-.16 3.64 3.64 0 0 0 .31-.31c.08-.06.22 0 .31-.1a1.07 1.07 0 0 1 .52-.31c.22 0 .17.23.42.26a1.78 1.78 0 0 0 .47-.21c.21-.09.48-.07.42-.26a3.5 3.5 0 0 1-.69-.25z"></path><path d="M47.41 104.27c0-.4-1.23-.6-1.56-.42-.88.48 1.52.96 1.56.42zM45.01 105.11c-.11-.4-.68-.27-1.2-.47a2.31 2.31 0 0 1-.26-.21 4.59 4.59 0 0 0-1-.52.85.85 0 0 0-.36 0 1 1 0 0 0-.94.52.7.7 0 0 0 .68.57c.27 0 .38-.21.73-.26a1.3 1.3 0 0 1 1.51.73c.09.54-.53.86-.42 1.15a1.38 1.38 0 0 0 1 .21c.3-.25 0-.68 0-1a2 2 0 0 0 .26-.72zM50.59 104.69c0-.33-.7-.39-.83-.37-.32.07-.4.06-.42.31-.04.52 1.27.62 1.25.06zM60.23 106.47c-.14-.05-.22 0-.26-.16s0 0 .16-.16 0-.2.1-.26a.9.9 0 0 1 .83-.31c.46-.09 1-.6.68-1-.14-.2-1.3-.54-1.51-.1a.66.66 0 0 0 .05.37.82.82 0 0 1 .05.37c-.13.39-1.11.29-1.15.83a.66.66 0 0 0 .26.47 1.07 1.07 0 0 0-.47.83c.18.3 1.55 0 1.62-.16a.54.54 0 0 0-.05-.57 1.15 1.15 0 0 0-.31-.15z"></path><path d="M41.88 105.73c.33.05.52.27.63.05s-.07-.31-.26-.42a3.57 3.57 0 0 0-.57-.1c-.29-.11-.44-.35-.63-.36s-.46.17-.78.16-.48-.16-.73-.16a5.4 5.4 0 0 1-1 .26c-.25-.08-.38-1-.78-.78a.62.62 0 0 0 .05.83 3.39 3.39 0 0 0 1 .31 6.38 6.38 0 0 0 1.09.31c.27 0 .41-.34.63-.36a2.41 2.41 0 0 1 .83.26c.19.03.41-.02.52 0zM57.99 104.53c-.11.17 0 .4-.1.47a1.79 1.79 0 0 1-.63.16c-.57.06-1.1-.36-1.36-.1s.07.64.21.73a.81.81 0 0 1 .52.42 2.51 2.51 0 0 1-.16.47c0 .25.42.3.42.52a1 1 0 0 1-.26.37 1.69 1.69 0 0 0 1.25-.05.91.91 0 0 0 .1-.52 1.92 1.92 0 0 0 .42-.63c-.1-.32-.8-.15-.89-.31-.25-.46.73-.55.89-.68a3 3 0 0 0 .16-.37c.15-.24.25-.17.21-.36a.47.47 0 0 0-.78-.12zM67.11 104.53c-.07-.19-.21-.19-.57-.16s-.62.06-.62.36c-.01.6 1.38.36 1.19-.2zM51.94 104.95a2.44 2.44 0 0 0 .83.52 2.76 2.76 0 0 0 .83-.26h.52a.56.56 0 0 0 .47-.57c-.08-.23-.31-.19-.52-.16s-.38.22-.63.26-.28-.05-.52-.05a6.72 6.72 0 0 1-.78.05c-.14 0-1.09-.56-1.09-.05 0 .29.72.19.89.26zM62.94 106.41a2.71 2.71 0 0 0 .1-.62c.1-.12.75-.07.73-.42s-.53-.21-.57-.21a4.9 4.9 0 0 0-.89.31c-.21.06-.44.06-.57.1a1.23 1.23 0 0 0-.83 1c.17.52 1.86.15 2.03-.16z"></path><path d="M55.49 105.68a1.15 1.15 0 0 0-.52.21c-.38.46.38.83.73.52a1.41 1.41 0 0 0 .1-.26c.14-.42.03-.48-.31-.47zM63.41 105.94a2.51 2.51 0 0 0-.21.52 1.35 1.35 0 0 0-.47.47 2 2 0 0 0 1.09-.16 1 1 0 0 0 .31-.57.46.46 0 0 0-.72-.26zM41.46 106.1a1.25 1.25 0 0 0 .89.37 1.2 1.2 0 0 0 1 .05c.17-.43-1.69-.66-1.89-.42zM47.46 106.93a3.5 3.5 0 0 0-1.3.05 1 1 0 0 0 .89.31 6.43 6.43 0 0 0 1.15.1 1 1 0 0 0 .78-.47c-.08-.54-1.27-.02-1.52.01z"></path></g></g><g id="SvgjsG2787" featureKey="symbolFeature-0" transform="matrix(0.9987260326829024,0,0,0.9987260326829024,105.75032063486285,79.83091348684579)" fill="#8b3db5"><path xmlns="http://www.w3.org/2000/svg" fill="#8b3db5" d="M96.566,64.727c1.991-7.106,2.83-12.888,2.491-17.188c-0.328-4.162-1.748-6.999-4.22-8.43  c-2.815-1.63-6.819-1.275-11.58,1.027c-1.298,0.628-2.631,1.39-3.971,2.267c-0.346-0.25-0.695-0.496-1.046-0.737  c0.69-4.469,1.138-7.857,1.332-10.077c0.098-1.128,0.133-1.961,0.107-2.548c-0.019-0.434-0.071-1.588-1.077-1.796  c-0.993-0.205-1.516,0.824-1.713,1.212c-0.238,0.468-0.51,1.127-0.833,2.015c-0.539,1.483-1.215,3.604-2.009,6.303  c-0.194,0.66-0.388,1.331-0.581,2.004c-1.257-0.667-2.545-1.281-3.863-1.842c-1.074-3.15-2.391-6.232-3.88-9.011  c-2-3.732-4.207-6.785-6.562-9.075c-2.681-2.607-5.474-4.138-8.304-4.55c-3.925-0.571-7.762,1.008-11.403,4.692  c-1.923,1.946-3.799,4.497-5.613,7.631c-2.801,0.844-5.466,2.286-7.971,4.319c-4.357,3.536-8.239,8.889-11.563,15.939  c-0.117-0.012-0.237-0.018-0.357-0.018c-1.903,0-3.447,1.543-3.447,3.447c0,0.607,0.157,1.177,0.433,1.672  c-2.756,3.49-5.024,7.321-6.768,11.445c-2.6,6.147-3.918,12.676-3.918,19.405c0,0.591,0.479,1.07,1.07,1.07h35.833  c0.45,1.379,1.747,2.376,3.276,2.376c1.53,0,2.826-0.997,3.276-2.376h55.18c0.591,0,1.07-0.479,1.07-1.07  C99.956,76.574,98.816,70.491,96.566,64.727z M2.912,75.771h7.942c-0.461,2.476-0.712,4.545-0.795,5.99H2.403  C2.448,79.731,2.62,77.732,2.912,75.771z M4.87,67.641h6.337c0.214,0.655,0.618,1.223,1.148,1.64  c-0.418,1.521-0.773,2.98-1.069,4.35H3.282C3.683,71.584,4.215,69.585,4.87,67.641z M8.489,59.51h7.247  c-0.514,1.211-0.988,2.421-1.423,3.618c-1.455,0.071-2.672,1.044-3.106,2.372H5.648C6.458,63.429,7.409,61.429,8.489,59.51z   M81.955,73.63c-0.052-0.16-0.116-0.314-0.19-0.463c0.836-1.15,1.443-2.486,1.795-3.969c0.12-0.505,0.21-1.025,0.27-1.558h1.421  c0.541,1.766,0.967,3.376,1.296,4.749c0.1,0.42,0.196,0.833,0.286,1.24H81.955z M70.151,73.63c-0.189-1.861-0.43-3.881-0.731-5.99  h6.749c0.318,1.395,0.597,2.751,0.838,4.046c-0.753,0.419-1.333,1.111-1.604,1.944H70.151z M14.371,70.014  c0.037,0.001,0.075,0.003,0.112,0.003c1.53,0,2.826-0.997,3.276-2.376h4.192c-0.471,2.113-0.852,4.134-1.153,5.99h-7.323  c0.09-0.407,0.186-0.821,0.286-1.24C13.937,71.661,14.139,70.864,14.371,70.014z M29.242,43.249h2.705  c-1.3,1.776-2.52,3.775-3.654,5.99h-4.387C25.445,47.137,27.215,45.096,29.242,43.249z M83.917,65.5  c-0.024-0.832-0.112-1.682-0.266-2.542c0.328,0.867,0.631,1.716,0.91,2.542H83.917z M80.229,71.623  c-0.346-0.175-0.726-0.293-1.128-0.342c-0.218-1.171-0.465-2.389-0.744-3.64h3.321C81.474,69.137,80.985,70.484,80.229,71.623z   M77.857,65.5c-0.481-1.959-1.039-3.973-1.682-5.99h4.22c0.341,0.8,0.623,1.614,0.838,2.422c0.329,1.236,0.511,2.432,0.55,3.568  H77.857z M41.748,65.5c0.091-1.959,0.211-3.974,0.371-5.99h6.017c-1.666,1.775-3.107,3.749-4.308,5.908  c-0.015,0.027-0.03,0.055-0.045,0.082H41.748z M42.705,67.641c-0.416,0.911-0.793,1.851-1.133,2.82  c0.023-0.916,0.052-1.858,0.087-2.82H42.705z M17.759,65.5c-0.167-0.511-0.45-0.97-0.818-1.345c0.98-1.598,2.193-3.155,3.6-4.645  h3.594c-0.643,2.017-1.201,4.031-1.682,5.99H17.759z M28.968,52.79c0.804-0.49,1.63-0.961,2.477-1.411h2.908  c-0.397,1.3-0.774,2.665-1.132,4.094c-0.157,0.629-0.308,1.261-0.454,1.896h-5.646c0.151-0.419,0.306-0.837,0.466-1.254  C28.005,55.024,28.464,53.909,28.968,52.79z M51.173,56.695V51.38h6.121c0.065,0.441,0.128,0.89,0.189,1.348  c-1.424,0.686-2.876,1.505-4.316,2.487C52.479,55.684,51.814,56.178,51.173,56.695z M54.891,41.108h-3.718v-5.56  C52.578,36.382,53.825,38.244,54.891,41.108z M55.597,43.249c0.038,0.131,0.076,0.264,0.114,0.398  c-1.479-0.094-2.996-0.102-4.538-0.025v-0.373H55.597z M62.996,49.239h-3.871c-0.185-1.097-0.384-2.138-0.596-3.123  c1.225,0.19,2.416,0.446,3.568,0.769C62.414,47.656,62.713,48.443,62.996,49.239z M64.742,47.767  c1.089,0.426,2.135,0.917,3.133,1.472h-2.609C65.094,48.737,64.919,48.246,64.742,47.767z M63.67,45.098  c-0.279-0.641-0.565-1.258-0.858-1.849h2.817c0.968,1.19,1.858,2.461,2.673,3.776C66.843,46.257,65.298,45.613,63.67,45.098z   M60.979,44.381c-0.97-0.213-1.965-0.385-2.984-0.516c-0.054-0.208-0.109-0.414-0.165-0.616H60.4  C60.598,43.619,60.791,43.996,60.979,44.381z M57.17,41.108c-0.582-1.697-1.231-3.127-1.949-4.294  c1.463,1.051,2.763,2.535,3.916,4.294H57.17z M49.033,35.612v5.496h-3.614C46.458,38.314,47.67,36.474,49.033,35.612z   M49.033,43.249v0.532c-1.541,0.152-3.099,0.387-4.661,0.702c0.111-0.425,0.224-0.836,0.341-1.234H49.033z M43.83,46.786  c1.759-0.395,3.496-0.68,5.202-0.856v3.31h-5.675C43.507,48.384,43.664,47.567,43.83,46.786z M51.173,45.764  c1.743-0.089,3.446-0.061,5.098,0.081c0.244,1.058,0.47,2.19,0.68,3.394h-5.778V45.764z M59.459,51.38h1.219  c-0.381,0.139-0.767,0.288-1.156,0.446C59.501,51.676,59.48,51.527,59.459,51.38z M63.708,41.108h-2.048  c-0.208-0.355-0.419-0.699-0.633-1.031c-0.609-0.944-1.243-1.794-1.899-2.551C60.8,38.496,62.323,39.716,63.708,41.108z   M45.088,36.814c-0.718,1.167-1.367,2.597-1.949,4.294h-1.967C42.325,39.349,43.625,37.865,45.088,36.814z M42.48,43.249  c-0.157,0.565-0.307,1.154-0.452,1.767c-0.124,0.031-0.248,0.063-0.373,0.095c-1.036,0.271-2.063,0.575-3.079,0.908  c0.416-0.958,0.86-1.886,1.332-2.771H42.48z M41.524,47.364c-0.118,0.606-0.232,1.23-0.34,1.875h-3.871  c0.069-0.195,0.139-0.389,0.21-0.582C38.832,48.172,40.168,47.74,41.524,47.364z M35.298,55.993  c0.378-1.509,0.809-3.065,1.298-4.613h4.254c-0.142,0.99-0.275,2.021-0.398,3.093c-0.11,0.958-0.209,1.926-0.299,2.897h-5.188  C35.072,56.91,35.183,56.451,35.298,55.993z M42.578,54.717c0.133-1.16,0.279-2.273,0.436-3.337h6.018v5.99h-6.73  C42.386,56.48,42.478,55.594,42.578,54.717z M54.374,56.983c1.1-0.75,2.237-1.412,3.387-1.994c0.089,0.788,0.17,1.583,0.245,2.38  h-4.184C54.005,57.239,54.188,57.11,54.374,56.983z M59.857,54.473c-0.017-0.145-0.034-0.289-0.051-0.433  c1.442-0.611,2.88-1.103,4.266-1.49c0.344,1.158,0.657,2.313,0.939,3.442c0.115,0.458,0.226,0.917,0.334,1.376h-5.188  C60.067,56.398,59.968,55.431,59.857,54.473z M67.088,55.473c-0.298-1.19-0.609-2.336-0.934-3.436  c0.733-0.157,1.443-0.284,2.121-0.383c0.524,1.235,1.748,2.102,3.174,2.102c0.105,0,0.209-0.005,0.311-0.015  c0.343,0.799,0.664,1.593,0.963,2.374c0.159,0.417,0.314,0.835,0.466,1.254h-5.646C67.396,56.735,67.245,56.102,67.088,55.473z   M74.722,55.351c-0.322-0.841-0.654-1.66-0.995-2.457c0.213-0.188,0.403-0.402,0.565-0.637c2.009,1.056,3.738,2.937,5.022,5.113  H75.46C75.224,56.694,74.978,56.02,74.722,55.351z M68.665,43.249h0.542c0.091,0.381,0.177,0.761,0.259,1.139  C69.211,44.012,68.944,43.632,68.665,43.249z M41.181,37.527c-0.657,0.757-1.29,1.607-1.899,2.551  c-0.214,0.332-0.425,0.676-0.633,1.031h-2.048C37.986,39.716,39.509,38.496,41.181,37.527z M37.497,43.249  c-0.571,1.154-1.117,2.403-1.637,3.746c-1.699,0.664-3.357,1.414-4.961,2.244h-0.176c1.142-2.101,2.455-4.142,3.957-5.99H37.497z   M25.588,55.351c-0.256,0.67-0.502,1.343-0.738,2.019h-2.102c0.94-0.838,1.941-1.646,2.996-2.421  C25.692,55.082,25.639,55.216,25.588,55.351z M26.384,59.51h5.917c-0.418,2.014-0.78,4.028-1.09,5.99h-6.557  C25.149,63.538,25.722,61.523,26.384,59.51z M34.486,59.51h5.485c-0.158,2.019-0.277,4.033-0.366,5.99h-6.23  C33.686,63.555,34.054,61.541,34.486,59.51z M49.033,61.69v3.81h-2.795C47.064,64.144,47.995,62.873,49.033,61.69z M51.173,59.51  h7.018c0.16,2.016,0.28,4.031,0.371,5.99h-7.389V59.51z M60.338,59.51h5.485c0.432,2.031,0.8,4.044,1.112,5.99h-6.23  C60.615,63.543,60.496,61.529,60.338,59.51z M68.009,59.51h5.917c0.661,2.013,1.235,4.028,1.729,5.99h-6.557  C68.788,63.538,68.427,61.524,68.009,59.51z M78.953,53.276c-0.662-0.726-1.357-1.359-2.076-1.896h1.004  c0.488,0.749,0.949,1.5,1.383,2.248C79.162,53.509,79.058,53.391,78.953,53.276z M71.762,44.932  c-0.085-0.428-0.175-0.859-0.271-1.291c0.166,0.156,0.33,0.314,0.492,0.472C71.908,44.391,71.834,44.664,71.762,44.932z   M67.007,41.108c-0.6-0.731-1.239-1.465-1.912-2.195c1.189,0.666,2.314,1.403,3.379,2.195H67.007z M34.729,39.917  c-0.366,0.381-0.727,0.779-1.083,1.192h-1.811c1.438-1.071,2.987-2.039,4.654-2.87C35.89,38.76,35.303,39.319,34.729,39.917z   M27.163,51.38c-0.929,0.587-1.833,1.202-2.708,1.844c-1.785,1.31-3.405,2.698-4.842,4.146h-0.554  c0.186-0.383,0.377-0.766,0.573-1.149c0.81-1.583,1.739-3.217,2.797-4.841H27.163z M24.14,67.641h6.749  c-0.301,2.109-0.542,4.129-0.731,5.99h-7.197C23.269,71.773,23.658,69.752,24.14,67.641z M33.048,67.641h6.468  c-0.077,2.118-0.122,4.139-0.147,5.99h-7.056C32.5,71.793,32.741,69.772,33.048,67.641z M45.058,67.641h3.975v5.99h-6.21  C43.39,71.494,44.136,69.497,45.058,67.641z M51.173,67.641h7.477c0.078,2.117,0.123,4.138,0.148,5.99h-7.625V67.641z   M60.793,67.641h6.468c0.307,2.132,0.548,4.152,0.735,5.99h-7.056C60.914,71.779,60.87,69.758,60.793,67.641z M87.485,67.641h7.851  c0.654,1.944,1.187,3.944,1.588,5.99h-7.901C88.622,71.775,88.114,69.754,87.485,67.641z M94.557,65.5h-7.741  c-0.642-1.958-1.386-3.972-2.242-5.99h7.143C92.797,61.429,93.747,63.429,94.557,65.5z M83.622,57.369  c-0.331-0.711-0.677-1.419-1.037-2.124c-0.689-1.346-1.411-2.635-2.165-3.866h5.532c1.645,1.873,3.146,3.875,4.486,5.99H83.622z   M79.038,49.239c-0.621-0.912-1.26-1.787-1.919-2.626c0.693-0.552,1.39-1.075,2.085-1.567c1.674,1.292,3.26,2.694,4.748,4.193  H79.038z M76.403,49.239h-1.679c-0.049-0.15-0.107-0.296-0.176-0.436c0.302-0.274,0.605-0.544,0.91-0.809  C75.783,48.406,76.097,48.821,76.403,49.239z M73.447,46.915c0.086-0.321,0.175-0.654,0.266-0.996  c0.128,0.142,0.254,0.285,0.379,0.428C73.876,46.533,73.661,46.723,73.447,46.915z M50.99,32.987  c-0.061-0.001-0.122-0.002-0.183-0.003c-0.037-0.001-0.074-0.001-0.111-0.002c-0.163-0.002-0.326-0.004-0.49-0.004  c-0.002,0-0.005,0-0.007,0c-0.007,0-0.014,0-0.02,0c-0.018,0-0.037,0-0.055,0c-0.002,0-0.004,0-0.005,0c-0.005,0-0.01,0-0.016,0  c-0.138,0-0.275,0.001-0.412,0.003c-6.345,0.051-12.507,1.275-18.335,3.643c1.273-3.069,2.58-5.8,3.914-8.187  c1.504-0.375,3.052-0.563,4.644-0.563c0.172,0,0.345,0.002,0.518,0.007c4.732,0.12,9.883,1.996,14.873,5.364  C53.877,33.098,52.439,33.012,50.99,32.987z M30.676,39.255c-0.248,0.182-0.494,0.368-0.738,0.559  c-0.53,0.413-1.051,0.845-1.565,1.295h-1.398C28.178,40.439,29.413,39.821,30.676,39.255z M23.489,43.249h2.632  c-1.725,1.777-3.343,3.777-4.849,5.99h-4.045c-0.076-0.234-0.177-0.457-0.299-0.666C18.95,46.613,21.145,44.83,23.489,43.249z   M13.949,53.756c1.53,0,2.826-0.997,3.276-2.376h2.664c-0.753,1.231-1.475,2.52-2.165,3.866c-0.361,0.704-0.706,1.413-1.037,2.124  h-6.92c0.857-1.353,1.78-2.661,2.766-3.918C12.966,53.646,13.445,53.756,13.949,53.756z M13.033,75.771h7.443  c-0.346,2.476-0.533,4.545-0.596,5.99h-7.677C12.294,80.318,12.563,78.225,13.033,75.771z M22.631,75.771h7.326  c-0.212,2.447-0.325,4.512-0.362,5.99h-7.574C22.085,80.322,22.278,78.25,22.631,75.771z M32.112,75.771h7.237  c-0.009,1.416-0.009,2.693-0.005,3.789c-1.035,0.343-1.852,1.164-2.191,2.201H31.74C31.779,80.455,31.887,78.369,32.112,75.771z   M41.729,79.639c0.141-1.332,0.339-2.622,0.592-3.868h6.711v5.99h-5.327C43.391,80.796,42.662,80.019,41.729,79.639z M51.173,75.771  h7.647c0.015,2.236,0.004,4.126-0.004,5.498c-0.001,0.172-0.002,0.335-0.003,0.492h-7.64V75.771z M60.957,81.281  c0.008-1.376,0.018-3.27,0.004-5.51h7.237c0.225,2.598,0.333,4.685,0.372,5.99h-7.615C60.955,81.608,60.956,81.448,60.957,81.281z   M70.352,75.771h5.05c0.379,1.162,1.359,2.053,2.574,2.304c0.168,1.468,0.269,2.719,0.312,3.685h-7.574  C70.677,80.283,70.564,78.218,70.352,75.771z M80.098,77.841c0.875-0.396,1.555-1.147,1.857-2.07h5.322  c0.47,2.454,0.739,4.547,0.83,5.99h-7.677C80.385,80.74,80.279,79.408,80.098,77.841z M89.455,75.771h7.838  c0.292,1.961,0.464,3.96,0.509,5.99H90.25C90.167,80.316,89.916,78.247,89.455,75.771z M84.189,42.063  c2.853-1.38,6.831-2.691,9.575-1.102c3.736,2.164,4.225,9.427,1.432,20.585c-2.449-5.186-5.753-9.878-9.842-13.967  c-1.353-1.353-2.772-2.619-4.253-3.798C82.145,43.128,83.178,42.552,84.189,42.063z M75.758,44.962  c-0.451-0.52-0.91-1.024-1.376-1.511c0.018-0.067,0.037-0.134,0.055-0.202h2.28c0.227,0.153,0.452,0.308,0.676,0.465  C76.847,44.113,76.301,44.529,75.758,44.962z M75.836,38.282c0.528-1.82,0.972-3.28,1.345-4.451  c-0.212,1.768-0.517,3.962-0.911,6.554c-0.293-0.181-0.587-0.359-0.884-0.534C75.535,39.327,75.685,38.802,75.836,38.282z   M72.865,40.907c-0.019,0.067-0.038,0.135-0.056,0.202h-0.872c-0.455-0.398-0.917-0.783-1.386-1.152  c-0.025-0.088-0.05-0.177-0.076-0.265C71.284,40.074,72.081,40.479,72.865,40.907z M50.549,16.418  c4.601,0.669,9.32,5.115,13.287,12.518c1.164,2.172,2.217,4.534,3.126,6.965c-2.343-0.843-4.736-1.505-7.17-1.985  c-5.522-4.499-12.283-7.998-19.306-8.176c-1.272-0.032-2.523,0.046-3.751,0.232C41.151,19.001,45.831,15.732,50.549,16.418z   M32.304,29.444c-1.288,2.508-2.542,5.317-3.758,8.422c-3.944,1.891-7.597,4.28-10.915,7.134  C21.819,37.061,26.726,31.861,32.304,29.444z"></path></g><g id="SvgjsG2788" featureKey="nameFeature-0" transform="matrix(1.0202516909360968,0,0,1.0202516909360968,53.84788129174799,175.49963108193288)" fill="#ffffff"><path d="M4.1797 27.578 l-2.0703 0 c1.1719 -6.7578 6.4453 -13.926 12.695 -16.094 c6.4258 -2.2461 11.738 -1.1523 17.363 1.8945 l-1.875 8.0664 l-3.0859 0 c-0.44922 -1.0938 -0.15625 -3.2422 -4.6875 -3.6328 c-6.4453 -0.56641 -10.684 5.0781 -11.445 9.7656 l2.0703 0 c-0.39063 2.4414 0.13672 4.6484 1.7969 5.5469 c1.0938 0.58594 2.6758 0.85938 5.0195 0.58594 l0.039063 0 l0.72266 -3.1641 l-4.6484 0 l0.68359 -2.9688 l-2.1094 0 l1.0156 -4.375 l14.336 0 l-0.99609 4.375 l2.0898 0 l-2.4805 10.762 c-0.99609 0.41016 -2.0313 0.74219 -3.0664 1.0938 c-4.6484 1.4258 -10.605 2.3828 -15.234 0.52734 c-5.4883 -2.1484 -7.0313 -7.1484 -6.1328 -12.383 z M45.8840078125 27.344 l-2.9297 12.734 l-9.8828 0 l2.9297 -12.734 l-1.9922 0 l3.8281 -16.484 l9.8633 0 l-3.7891 16.484 l1.9727 0 z M66.064703125 26.719 l-2.9688 13.359 l-9.9023 0 l3.0469 -13.359 l-1.7773 0 l1.9727 -8.5547 l-7.8125 0 l1.7188 -7.4023 l25.352 0 l-1.6602 7.4023 l-7.793 0 l-1.9141 8.5547 l1.7383 0 z M94.2723671875 27.344 l1.9531 0 l-0.25391 1.1914 l-10.078 0 l-2.6563 11.543 l-9.8242 0 l2.9688 -12.734 l-1.9922 0 l3.8086 -16.484 l20.742 0 l-1.7188 7.4023 l-10.918 0 l-0.68359 2.8711 l10.059 0 z M126.757625 25.683999999999997 c-0.15625 0.625 -0.33203 1.25 -0.56641 1.8945 l2.1289 0 c-2.4805 7.7539 -8.7891 13.379 -17.441 13.379 c-8.9258 0 -12.402 -5.625 -11.27 -13.379 l-2.0703 0 c0.078125 -0.64453 0.17578 -1.2695 0.3125 -1.8945 c2.0703 -8.9258 8.5352 -15.313 17.93 -15.313 c9.1992 0 12.988 6.4453 10.977 15.313 z M118.183625 27.578 l-2.1094 0 c0.19531 -0.64453 0.39063 -1.2695 0.52734 -1.9336 c2.4805 -10.723 -6.1719 -10.41 -8.5938 0.039063 c-0.13672 0.68359 -0.23438 1.3086 -0.33203 1.8945 l2.1094 0 c-1.0156 8.1641 5.6445 7.9883 8.3984 0 z M132.1728390625 27.266 l-1.7969 0 l3.75 -16.367 l9.8047 0 l-3.7891 16.367 l1.8164 0 l-1.2891 5.332 l10.84 0 l-1.6797 7.3828 l-20.605 0 z M165.185765625 27.344 l-2.9297 12.734 l-9.8828 0 l2.9297 -12.734 l-1.9922 0 l3.8281 -16.484 l9.8633 0 l-3.7891 16.484 l1.9727 0 z M196.5769609375 25.683999999999997 c-0.15625 0.625 -0.33203 1.25 -0.56641 1.8945 l2.1289 0 c-2.4805 7.7539 -8.7891 13.379 -17.441 13.379 c-8.9258 0 -12.402 -5.625 -11.27 -13.379 l-2.0703 0 c0.078125 -0.64453 0.17578 -1.2695 0.3125 -1.8945 c2.0703 -8.9258 8.5352 -15.313 17.93 -15.313 c9.1992 0 12.988 6.4453 10.977 15.313 z M188.0029609375 27.578 l-2.1094 0 c0.19531 -0.64453 0.39063 -1.2695 0.52734 -1.9336 c2.4805 -10.723 -6.1719 -10.41 -8.5938 0.039063 c-0.13672 0.68359 -0.23438 1.3086 -0.33203 1.8945 l2.1094 0 c-1.0156 8.1641 5.6445 7.9883 8.3984 0 z"></path></g>
			</g>
		</svg>
	